<?xml version="1.0" standalone="no"?>
<!DOCTYPE svg PUBLIC "-//W3C//DTD SVG 20010904//EN"
 "http://www.w3.org/TR/2001/REC-SVG-20010904/DTD/svg10.dtd">
<svg version="1.0" xmlns="http://www.w3.org/2000/svg"
 width="1024.000000pt" height="1024.000000pt" viewBox="0 0 1024.000000 1024.000000"
 preserveAspectRatio="xMidYMid meet">

<g transform="translate(0.000000,1024.000000) scale(0.100000,-0.100000)"
fill="#000000" stroke="none">
<path d="M4810 10099 c-205 -13 -702 -88 -723 -108 -11 -10 29 -51 67 -71 l29
-15 -34 -5 c-24 -4 -35 -11 -37 -25 -5 -23 -22 -45 -22 -27 0 7 -11 12 -25 12
-14 0 -25 -4 -25 -10 0 -5 7 -10 15 -10 8 0 15 -5 15 -11 0 -7 -9 -9 -21 -6
-24 6 -21 -11 4 -27 13 -8 20 -6 31 9 13 19 14 19 50 -5 36 -25 46 -40 25 -40
-6 0 -4 -7 5 -15 22 -22 146 -2 146 24 0 18 18 41 32 41 4 0 8 -8 8 -18 0 -10
2 -21 5 -24 3 -2 58 3 123 13 221 32 406 44 682 43 391 0 635 -26 1040 -111
253 -53 699 -199 884 -290 44 -21 59 -25 65 -15 9 15 41 5 41 -13 0 -7 7 -18
15 -25 13 -10 15 -9 15 11 0 36 14 53 29 36 12 -15 5 -47 -11 -47 -22 0 8 -23
75 -57 349 -175 723 -435 1028 -714 311 -284 581 -601 803 -941 81 -125 83
-127 102 -108 13 13 28 17 46 13 27 -5 27 -5 11 -37 -9 -17 -18 -25 -20 -18
-5 13 -43 17 -43 5 0 -5 9 -23 20 -41 53 -86 220 -414 220 -431 0 -5 9 -25 19
-43 10 -18 38 -81 61 -140 25 -65 46 -105 53 -101 6 3 7 1 3 -5 -4 -7 16 -83
45 -169 73 -225 120 -398 145 -540 69 -390 83 -522 91 -833 9 -371 -19 -684
-91 -1042 -31 -150 -30 -142 -11 -135 8 4 17 2 20 -4 4 -5 12 -9 18 -8 31 4
34 -3 10 -27 -18 -18 -32 -24 -49 -20 -17 5 -26 1 -35 -15 -9 -18 -9 -21 4
-16 17 6 37 -10 37 -31 0 -8 8 -21 18 -28 15 -12 15 -13 0 -14 -9 0 -18 4 -20
8 -1 5 -15 12 -30 16 -26 6 -28 4 -44 -51 -54 -193 -123 -390 -189 -538 -7
-16 -27 -64 -45 -105 -86 -199 -244 -487 -360 -655 -307 -448 -600 -772 -970
-1077 -34 -28 -42 -40 -33 -49 13 -13 7 -36 -15 -58 -12 -12 -15 -12 -23 0 -5
8 -7 20 -4 27 2 6 2 12 0 12 -3 0 -47 -31 -98 -68 -698 -513 -1400 -802 -2212
-911 -401 -54 -865 -53 -1251 4 -61 9 -115 15 -120 14 -5 -1 -16 0 -24 3 -8 3
-46 11 -85 18 -57 10 -153 31 -295 66 -8 2 -37 10 -65 18 -27 8 -81 24 -120
35 -615 179 -1263 543 -1780 1001 -357 316 -669 688 -924 1103 -48 78 -92 141
-97 140 -5 -2 -11 -40 -14 -85 -4 -64 -7 -77 -13 -54 -4 15 -5 48 -1 72 4 30
2 49 -7 60 -11 14 -10 18 6 31 19 14 18 18 -44 136 -92 174 -206 443 -271 637
-98 289 -180 644 -214 925 -55 448 -39 954 44 1410 83 452 229 875 449 1300
201 388 384 655 671 980 105 120 106 120 98 160 -10 57 -9 75 2 75 6 0 10 -22
10 -50 0 -27 3 -50 7 -50 3 0 65 58 137 128 369 360 848 690 1291 889 39 17
97 43 130 58 129 58 407 160 520 190 103 28 325 85 330 85 3 0 5 5 5 11 0 6
-9 9 -20 6 -14 -4 -25 1 -33 14 -6 10 -17 19 -24 19 -7 0 -28 14 -46 30 -19
17 -42 30 -51 30 -21 0 -21 19 0 27 12 4 13 8 3 13 -21 13 25 54 53 47 13 -4
30 -2 38 3 11 7 9 11 -13 19 -19 8 -25 15 -20 27 5 15 2 16 -27 10 -42 -8 -46
-12 -31 -30 20 -24 -8 -31 -29 -8 -19 20 -20 20 -87 3 -147 -39 -259 -76 -277
-93 -12 -11 -22 -14 -26 -8 -12 20 -318 -101 -595 -235 -244 -117 -505 -273
-725 -430 -15 -11 -50 -35 -76 -54 -145 -102 -464 -382 -464 -407 0 -8 -3 -13
-8 -10 -22 13 -324 -305 -321 -339 3 -46 -1 -80 -10 -67 -4 7 -6 25 -4 40 4
25 2 24 -38 -18 -136 -147 -350 -446 -497 -696 -85 -145 -255 -489 -313 -634
-120 -303 -240 -693 -218 -714 14 -15 11 -26 -6 -26 -9 0 -16 -11 -17 -27 -3
-54 -5 -68 -11 -83 -28 -72 -61 -263 -94 -550 -14 -119 -18 -232 -17 -490 0
-336 6 -427 49 -725 60 -415 204 -902 382 -1290 54 -118 188 -379 213 -415 10
-14 29 -47 43 -75 29 -59 225 -353 292 -440 201 -261 270 -341 485 -556 269
-270 454 -428 685 -587 33 -23 85 -59 115 -80 63 -44 100 -61 81 -38 -9 11 -9
16 0 22 14 8 39 -22 39 -47 0 -27 331 -216 562 -320 62 -28 136 -61 164 -74
58 -26 283 -108 424 -153 244 -78 442 -124 779 -177 178 -29 364 -40 686 -40
513 0 635 13 1146 121 15 4 32 17 37 30 11 22 10 23 -24 20 -23 -1 -40 4 -51
16 -21 24 -13 30 38 30 43 -1 52 -5 55 -25 1 -7 6 -22 11 -33 8 -21 8 -21 133
13 69 19 134 39 145 43 11 5 50 19 88 31 37 11 67 23 67 27 0 3 -7 13 -16 23
-18 20 -11 41 10 33 8 -3 17 0 21 5 7 12 25 5 25 -9 0 -5 -7 -16 -16 -25 -26
-25 -10 -28 45 -8 37 13 51 23 51 37 0 15 3 16 15 6 21 -18 68 0 339 128 301
141 657 354 878 523 170 131 235 184 353 290 312 279 614 623 833 946 42 63
50 79 33 69 -13 -8 -34 21 -27 39 4 10 14 13 34 9 34 -7 56 18 119 136 23 41
49 90 59 108 19 34 19 34 -3 49 -32 22 -29 29 13 29 42 -1 45 3 166 264 82
175 140 320 206 515 77 229 85 275 47 275 -8 0 -15 3 -15 6 0 9 27 33 32 28 3
-2 13 5 23 16 30 33 131 528 111 547 -2 3 -14 -1 -26 -7 -12 -6 -24 -9 -27 -6
-9 9 17 35 30 31 29 -11 40 12 35 74 -3 40 0 62 7 65 40 15 45 764 7 1076 -25
199 -48 354 -67 435 -31 138 -77 323 -89 365 -8 25 -21 72 -31 105 -80 288
-283 754 -451 1037 -35 60 -64 110 -64 113 0 2 -14 25 -31 50 l-32 47 -19 -31
c-11 -17 -22 -31 -24 -31 -4 0 17 51 28 66 9 13 -72 133 -90 134 -7 0 -10 5
-7 10 6 10 -95 156 -178 256 -23 28 -62 75 -86 105 -225 281 -555 589 -906
846 -146 107 -371 253 -390 253 -24 0 -23 -118 0 -154 10 -14 11 -26 5 -36 -5
-8 -10 -25 -10 -36 0 -26 -39 -77 -40 -54 -1 8 -4 29 -6 45 -3 17 -5 35 -5 40
1 30 9 93 15 115 3 14 3 45 -1 69 -8 42 -11 45 -101 97 -52 30 -97 52 -102 49
-4 -3 -10 1 -13 9 -3 7 -19 18 -36 24 -29 10 -31 10 -37 -24 -6 -33 -26 -45
-40 -23 -4 7 1 16 10 21 9 5 16 18 16 29 0 16 -25 32 -114 74 -709 337 -1593
497 -2446 444z m225 -49 c-5 -8 -11 -8 -17 -2 -6 6 -7 16 -3 22 5 8 11 8 17 2
6 -6 7 -16 3 -22z m1175 -86 c0 -3 -5 -15 -11 -26 -9 -17 -13 -18 -20 -7 -14
22 -10 35 11 36 11 1 20 -1 20 -3z m-1630 -38 c0 -3 -4 -8 -10 -11 -5 -3 -10
-1 -10 4 0 6 5 11 10 11 6 0 10 -2 10 -4z m-356 -27 c-3 -5 -10 -7 -15 -3 -5
3 -7 10 -3 15 3 5 10 7 15 3 5 -3 7 -10 3 -15z m2131 1 c3 -5 1 -10 -4 -10 -6
0 -11 5 -11 10 0 6 2 10 4 10 3 0 8 -4 11 -10z m-1221 -15 c-4 -8 -10 -15 -15
-15 -5 0 -9 7 -9 15 0 8 7 15 15 15 9 0 12 -6 9 -15z m-841 -33 c-4 -26 -8
-30 -19 -21 -11 9 -15 8 -20 -5 -4 -9 -18 -16 -33 -16 -34 0 -67 23 -56 39 5
9 10 10 18 2 15 -15 54 -14 64 2 7 10 46 37 49 33 1 0 -1 -16 -3 -34z m1707
23 c9 -10 9 -15 1 -15 -6 0 -11 4 -11 10 0 5 -7 6 -17 3 -11 -4 -14 -3 -9 5
10 16 21 15 36 -3z m-2 -34 c3 -8 -1 -12 -9 -9 -7 2 -15 10 -17 17 -3 8 1 12
9 9 7 -2 15 -10 17 -17z m-2088 -30 c0 -12 -20 -25 -27 -18 -7 7 6 27 18 27 5
0 9 -4 9 -9z m-42 -42 c12 -18 11 -20 -5 -17 -10 2 -19 11 -21 21 -5 23 10 21
26 -4z m192 -39 c0 -5 -4 -10 -10 -10 -5 0 -10 5 -10 10 0 6 5 10 10 10 6 0
10 -4 10 -10z m-510 -90 c0 -5 -5 -10 -11 -10 -5 0 -7 5 -4 10 3 6 8 10 11 10
2 0 4 -4 4 -10z m-110 -34 c0 -3 -4 -8 -10 -11 -5 -3 -10 -1 -10 4 0 6 5 11
10 11 6 0 10 -2 10 -4z m-333 -100 c-3 -7 0 -19 6 -25 8 -8 8 -11 0 -11 -11 0
-23 22 -23 41 0 5 5 9 11 9 6 0 9 -6 6 -14z m3943 -26 c0 -5 -5 -10 -11 -10
-5 0 -7 5 -4 10 3 6 8 10 11 10 2 0 4 -4 4 -10z m357 -192 c-3 -8 -6 -5 -6 6
-1 11 2 17 5 13 3 -3 4 -12 1 -19z m526 -138 c-3 -11 -9 -20 -14 -20 -10 0
-12 24 -2 33 13 13 21 7 16 -13z m453 -471 c3 -5 -4 -9 -15 -9 -11 0 -23 -4
-26 -10 -9 -14 -25 -12 -25 3 0 31 49 43 66 16z m44 11 c0 -5 -4 -10 -10 -10
-5 0 -10 5 -10 10 0 6 5 10 10 10 6 0 10 -4 10 -10z m-6720 -21 c0 -6 -4 -7
-10 -4 -5 3 -10 11 -10 16 0 6 5 7 10 4 6 -3 10 -11 10 -16z m9 -156 c1 -7 -3
-13 -9 -13 -5 0 -10 17 -9 38 1 33 2 34 9 12 4 -14 8 -31 9 -37z m7506 -573
c-3 -5 -10 -10 -16 -10 -5 0 -9 5 -9 10 0 6 7 10 16 10 8 0 12 -4 9 -10z m-80
-114 c18 -13 18 -14 -3 -20 -12 -4 -27 -4 -33 0 -6 3 -15 0 -20 -7 -4 -7 -11
-10 -15 -6 -6 6 33 46 47 47 3 0 14 -6 24 -14z m165 -26 c0 -11 -4 -20 -10
-20 -5 0 -10 9 -10 20 0 11 5 20 10 20 6 0 10 -9 10 -20z m140 -165 c-7 -8
-17 -12 -22 -9 -5 3 -1 12 9 19 22 17 30 11 13 -10z m-105 -22 c-9 -36 -14
-41 -25 -23 -10 16 5 50 21 50 7 0 9 -10 4 -27z m-8365 -29 c0 -8 -4 -14 -9
-14 -11 0 -22 26 -14 34 9 9 23 -3 23 -20z m-58 8 c-10 -3 -9 -8 4 -23 18 -20
6 -27 -12 -9 -8 8 -19 7 -38 -1 -20 -10 -29 -10 -38 -1 -9 9 -7 12 10 12 12 0
22 6 22 14 0 10 11 14 33 14 17 -1 26 -3 19 -6z m113 -42 c-3 -5 -10 -10 -16
-10 -5 0 -9 5 -9 10 0 6 7 10 16 10 8 0 12 -4 9 -10z m-165 -41 c0 -5 -4 -9
-10 -9 -5 0 -10 7 -10 16 0 8 5 12 10 9 6 -3 10 -10 10 -16z m-140 -129 c0 -5
-5 -10 -11 -10 -5 0 -7 5 -4 10 3 6 8 10 11 10 2 0 4 -4 4 -10z m8668 -2 c-5
-15 -58 -24 -58 -10 0 15 12 22 38 22 14 0 22 -5 20 -12z m183 -63 c0 -5 -9
-11 -21 -13 -20 -3 -27 8 -13 22 10 9 34 3 34 -9z m-8891 -104 c0 -6 -4 -13
-10 -16 -5 -3 -10 1 -10 9 0 9 5 16 10 16 6 0 10 -4 10 -9z m32 -38 c22 -20
23 -29 2 -37 -9 -3 -12 -2 -9 5 4 6 -1 19 -11 30 -21 23 -8 25 18 2z m9065
-255 c-3 -8 -6 -5 -6 6 -1 11 2 17 5 13 3 -3 4 -12 1 -19z m-9277 -88 c0 -5
-4 -10 -10 -10 -5 0 -10 5 -10 10 0 6 5 10 10 10 6 0 10 -4 10 -10z m66 -169
c-4 -5 -13 -8 -22 -4 -11 4 -12 8 -3 20 14 16 36 2 25 -16z m-11 -69 c-8 -8
-25 10 -19 20 4 6 9 5 15 -3 4 -7 6 -15 4 -17z m9 -178 c7 -19 -2 -37 -15 -29
-12 8 -12 45 0 45 5 0 12 -7 15 -16z m9218 -6 c-7 -7 -12 -8 -12 -2 0 14 12
26 19 19 2 -3 -1 -11 -7 -17z m2 -87 c3 -5 0 -14 -8 -20 -10 -9 -15 -8 -19 3
-9 22 15 37 27 17z m127 -50 c-8 -5 -11 -17 -6 -30 8 -25 -7 -28 -26 -5 -11
14 -9 19 11 34 14 10 27 16 30 14 2 -3 -2 -9 -9 -13z m-9376 -21 c12 -19 -12
-10 -31 11 -19 22 -19 22 3 10 12 -6 25 -16 28 -21z m-146 -9 c19 -12 6 -41
-18 -41 -26 0 -36 17 -21 35 14 17 20 18 39 6z m41 -37 c0 -8 -4 -12 -10 -9
-5 3 -10 10 -10 16 0 5 5 9 10 9 6 0 10 -7 10 -16z m9590 -278 c0 -3 -4 -8
-10 -11 -5 -3 -10 -1 -10 4 0 6 5 11 10 11 6 0 10 -2 10 -4z m53 -88 c15 -24
1 -48 -29 -48 -17 0 -28 -6 -31 -20 -7 -27 -20 -25 -19 3 3 41 18 76 34 80 24
6 34 3 45 -15z m-9705 -163 c-2 -3 -21 -2 -41 2 -43 7 -42 12 5 22 24 5 34 3
36 -7 2 -7 2 -15 0 -17z m9762 -200 c0 -8 -7 -15 -15 -15 -16 0 -20 12 -8 23
11 12 23 8 23 -8z m-60 -15 c-20 -13 -43 -13 -35 0 3 6 16 10 28 10 18 0 19
-2 7 -10z m-71 -694 l24 -14 -22 -7 c-24 -7 -34 -2 -37 20 -3 18 4 18 35 1z
m-9649 -36 c0 -13 -5 -18 -15 -14 -12 5 -13 10 -4 20 15 19 19 18 19 -6z
m9687 -377 c-3 -3 -11 -2 -17 2 -9 6 -9 10 1 16 14 8 27 -7 16 -18z m13 -38
c0 -9 10 -20 23 -24 22 -9 22 -9 -5 -20 -31 -12 -66 -3 -87 23 -18 21 -5 34
19 19 14 -10 19 -9 24 2 7 20 26 19 26 0z m-130 -45 c0 -5 -6 -10 -14 -10 -8
0 -18 5 -21 10 -3 6 3 10 14 10 12 0 21 -4 21 -10z m-9450 -100 c0 -5 -9 -10
-20 -10 -11 0 -20 5 -20 10 0 6 9 10 20 10 11 0 20 -4 20 -10z m9470 -40 c0
-15 -30 -32 -46 -26 -15 6 -15 8 2 25 18 17 44 18 44 1z m60 10 c0 -5 -2 -10
-4 -10 -3 0 -8 5 -11 10 -3 6 -1 10 4 10 6 0 11 -4 11 -10z m-9646 -45 c-7
-17 -20 -20 -28 -6 -7 10 3 21 20 21 8 0 11 -6 8 -15z m-24 -75 c0 -11 -4 -20
-10 -20 -5 0 -10 9 -10 20 0 11 5 20 10 20 6 0 10 -9 10 -20z m9600 -50 c0 -5
-4 -10 -10 -10 -5 0 -10 5 -10 10 0 6 5 10 10 10 6 0 10 -4 10 -10z m50 6 c0
-3 -4 -8 -10 -11 -5 -3 -10 -1 -10 4 0 6 5 11 10 11 6 0 10 -2 10 -4z m-163
-202 c-3 -3 -12 -4 -19 -1 -8 3 -5 6 6 6 11 1 17 -2 13 -5z m-27 -104 c25 -25
25 -26 -5 -25 -31 2 -39 10 -32 30 8 20 13 19 37 -5z m-9220 -200 c0 -5 -7
-10 -15 -10 -8 0 -15 5 -15 10 0 6 7 10 15 10 8 0 15 -4 15 -10z m9210 -20
c13 -8 13 -10 -2 -10 -9 0 -20 5 -23 10 -8 13 5 13 25 0z m-9090 -222 c0 -16
-3 -19 -11 -11 -6 6 -8 16 -5 22 11 17 16 13 16 -11z m175 -348 c3 -5 1 -10
-4 -10 -6 0 -11 5 -11 10 0 6 2 10 4 10 3 0 8 -4 11 -10z m8635 -55 c10 -13 9
-15 -8 -15 -15 0 -20 5 -16 15 4 8 7 15 9 15 1 0 8 -7 15 -15z m-8540 -80 c0
-8 -4 -15 -10 -15 -5 0 -10 7 -10 15 0 8 5 15 10 15 6 0 10 -7 10 -15z m0
-106 c0 -11 -4 -18 -10 -14 -5 3 -7 12 -3 20 7 21 13 19 13 -6z m8228 -135 c0
-17 -6 -24 -19 -24 -10 0 -21 5 -24 10 -3 6 -1 10 6 10 9 0 9 3 0 14 -9 11 -9
15 1 19 22 7 36 -3 36 -29z m143 11 c19 -8 32 -15 29 -15 -45 -11 -79 -1 -80
23 0 11 14 9 51 -8z m-8363 -23 c2 -7 -3 -12 -12 -12 -9 0 -16 7 -16 16 0 17
22 14 28 -4z m8149 -18 c-3 -3 -12 -4 -19 -1 -8 3 -5 6 6 6 11 1 17 -2 13 -5z
m178 -24 c3 -5 1 -10 -4 -10 -6 0 -11 5 -11 10 0 6 2 10 4 10 3 0 8 -4 11 -10z
m-8118 -26 c-9 -9 -28 6 -21 18 4 6 10 6 17 -1 6 -6 8 -13 4 -17z m8053 23 c0
-2 -9 -12 -19 -21 -19 -17 -20 -17 -31 3 -10 19 -8 21 20 21 16 0 30 -2 30 -3z
m-133 -75 c-16 -20 -25 -1 -19 38 l5 35 13 -30 c9 -21 9 -34 1 -43z m-7917
-12 c0 -5 -4 -10 -10 -10 -5 0 -10 5 -10 10 0 6 5 10 10 10 6 0 10 -4 10 -10z
m-5 -110 c3 -5 1 -10 -4 -10 -6 0 -11 5 -11 10 0 6 2 10 4 10 3 0 8 -4 11 -10z
m160 -190 c3 -5 1 -10 -4 -10 -6 0 -11 5 -11 10 0 6 2 10 4 10 3 0 8 -4 11
-10z m-10 -110 c3 -5 1 -10 -4 -10 -6 0 -11 5 -11 10 0 6 2 10 4 10 3 0 8 -4
11 -10z m7215 -180 c0 -5 -4 -10 -10 -10 -5 0 -10 5 -10 10 0 6 5 10 10 10 6
0 10 -4 10 -10z m-6785 -80 c3 -5 1 -10 -4 -10 -6 0 -11 5 -11 10 0 6 2 10 4
10 3 0 8 -4 11 -10z m58 -25 c4 -8 -3 -15 -16 -19 -23 -6 -43 6 -34 21 9 14
45 13 50 -2z m6577 -196 c0 -11 -4 -17 -10 -14 -5 3 -10 13 -10 21 0 8 5 14
10 14 6 0 10 -9 10 -21z m-172 -167 c6 -18 -15 -14 -22 4 -4 10 -1 14 6 12 6
-2 14 -10 16 -16z m-240 -153 c-2 -6 -8 -10 -13 -10 -5 0 -11 4 -13 10 -2 6 4
11 13 11 9 0 15 -5 13 -11z m52 -23 c0 -3 -4 -8 -10 -11 -5 -3 -10 -1 -10 4 0
6 5 11 10 11 6 0 10 -2 10 -4z m-4 -43 c11 -12 13 -18 5 -21 -19 -6 -41 6 -41
23 0 20 14 19 36 -2z m-5396 -223 c0 -5 -2 -10 -4 -10 -3 0 -8 5 -11 10 -3 6
-1 10 4 10 6 0 11 -4 11 -10z m590 -171 c0 -10 -4 -19 -10 -19 -5 0 -10 12
-10 26 0 14 4 23 10 19 6 -3 10 -15 10 -26z m140 21 c0 -5 -4 -10 -10 -10 -5
0 -10 5 -10 10 0 6 5 10 10 10 6 0 10 -4 10 -10z m-415 -30 c3 -5 1 -10 -4
-10 -6 0 -11 5 -11 10 0 6 2 10 4 10 3 0 8 -4 11 -10z m125 1 c0 -12 -20 -25
-27 -18 -7 7 6 27 18 27 5 0 9 -4 9 -9z m150 -61 c0 -5 -4 -10 -10 -10 -5 0
-10 5 -10 10 0 6 5 10 10 10 6 0 10 -4 10 -10z m3647 -46 c-9 -9 -28 6 -21 18
4 6 10 6 17 -1 6 -6 8 -13 4 -17z m53 16 c0 -5 -4 -10 -9 -10 -6 0 -13 5 -16
10 -3 6 1 10 9 10 9 0 16 -4 16 -10z m-3492 -39 c10 -6 9 -10 -7 -14 -14 -3
-21 0 -21 9 0 16 9 18 28 5z m3428 -59 c-11 -10 -15 4 -8 28 l7 25 3 -23 c2
-13 1 -26 -2 -30z m-464 -7 c-2 -14 -8 -25 -13 -25 -10 0 -11 12 -3 34 10 25
22 19 16 -9z m-2632 -5 c0 -5 -7 -10 -15 -10 -8 0 -15 5 -15 10 0 6 7 10 15
10 8 0 15 -4 15 -10z m370 -40 c-7 -16 -16 -30 -20 -30 -5 0 -15 -3 -24 -6
-28 -11 -17 16 14 34 16 9 30 23 30 31 0 8 3 11 6 8 4 -4 1 -20 -6 -37z m-605
20 c3 -5 1 -10 -4 -10 -6 0 -11 5 -11 10 0 6 2 10 4 10 3 0 8 -4 11 -10z
m2900 0 c3 -5 -1 -10 -10 -10 -9 0 -13 5 -10 10 3 6 8 10 10 10 2 0 7 -4 10
-10z m-2135 -20 c0 -5 -2 -10 -4 -10 -3 0 -8 5 -11 10 -3 6 -1 10 4 10 6 0 11
-4 11 -10z m2056 -47 c-7 -17 -8 -17 -17 0 -12 21 -2 44 13 29 6 -6 8 -19 4
-29z m-1997 -29 c-6 -7 -15 -11 -21 -8 -5 3 -4 12 3 20 6 7 15 11 21 8 5 -3 4
-12 -3 -20z m1201 -14 c0 -5 -7 -10 -15 -10 -8 0 -15 5 -15 10 0 6 7 10 15 10
8 0 15 -4 15 -10z m-1650 -24 c0 -11 -19 -15 -25 -6 -3 5 1 10 9 10 9 0 16 -2
16 -4z m420 -37 c0 -18 -2 -20 -15 -9 -13 11 -13 15 -3 21 18 12 18 12 18 -12z
m730 -73 c0 -3 -4 -8 -10 -11 -5 -3 -10 -1 -10 4 0 6 5 11 10 11 6 0 10 -2 10
-4z m486 -56 c8 0 12 -4 9 -10 -8 -13 -55 -13 -55 -1 0 5 3 17 6 26 6 16 8 16
16 1 5 -9 16 -16 24 -16z"/>
<path d="M4045 9890 c-3 -5 -1 -10 4 -10 6 0 11 5 11 10 0 6 -2 10 -4 10 -3 0
-8 -4 -11 -10z"/>
<path d="M5538 9485 c-2 -3 -31 -10 -63 -16 -64 -12 -126 -46 -151 -84 -9 -14
-18 -53 -21 -88 -3 -50 0 -68 16 -94 20 -32 79 -76 135 -100 36 -16 157 -45
163 -39 3 2 21 -1 41 -8 21 -7 54 -12 75 -12 23 1 37 -3 37 -11 0 -7 20 -15
48 -19 47 -7 91 -23 63 -24 -10 0 -11 -3 -2 -14 19 -22 -8 -90 -37 -94 -16 -3
-22 -8 -18 -19 5 -12 2 -14 -16 -8 -33 11 -135 18 -122 8 18 -13 23 -75 7 -91
-7 -7 -11 -18 -8 -23 8 -12 175 -12 175 0 0 5 8 7 19 4 20 -5 87 11 111 27 13
8 10 14 -15 35 -23 18 -37 23 -60 19 l-30 -5 33 20 c38 24 46 22 67 -20 19
-36 37 -37 65 -1 12 15 24 25 28 22 3 -3 11 13 17 35 11 36 10 42 -9 57 l-21
17 22 -5 c21 -6 22 -4 13 27 -6 19 -10 35 -10 36 0 2 -15 9 -32 17 -20 9 -26
15 -15 15 9 1 17 4 17 7 0 20 -126 92 -190 108 -14 4 -41 11 -60 16 -19 5 -69
17 -110 26 -157 36 -199 72 -149 131 21 25 31 28 84 29 l60 0 5 61 5 61 -81 1
c-44 1 -83 -1 -86 -4z m422 -419 c0 -19 -4 -23 -20 -19 -25 7 -26 19 -2 32 23
14 22 14 22 -13z m73 -93 c-7 -2 -19 -2 -25 0 -7 3 -2 5 12 5 14 0 19 -2 13
-5z m-128 -103 c3 -5 -1 -10 -9 -10 -9 0 -16 5 -16 10 0 6 4 10 9 10 6 0 13
-4 16 -10z"/>
<path d="M5725 9477 c-4 -8 -5 -38 -3 -68 l3 -53 49 -12 c58 -15 98 -42 102
-68 5 -38 26 -45 126 -47 53 -1 101 1 106 5 14 8 -15 96 -34 103 -8 3 -12 8
-9 12 9 16 -64 72 -119 92 -32 11 -61 18 -64 14 -3 -3 -12 1 -21 9 -9 8 -42
17 -73 21 -46 6 -59 4 -63 -8z"/>
<path d="M6657 9283 c-14 -32 -15 -40 -3 -51 12 -12 11 -17 -5 -33 -10 -10
-23 -19 -28 -19 -12 0 -23 -48 -16 -70 4 -11 -4 -29 -22 -49 -16 -17 -44 -70
-62 -118 -19 -48 -47 -116 -63 -150 -18 -38 -27 -71 -23 -82 4 -14 0 -23 -16
-31 -15 -9 -20 -19 -16 -36 2 -13 0 -24 -6 -24 -6 0 -2 -9 8 -20 10 -11 24
-20 32 -20 7 0 13 9 13 20 0 15 7 20 29 20 16 0 35 -7 42 -16 12 -15 11 -16
-11 -9 -14 4 -31 10 -39 13 -10 4 -9 -2 3 -27 11 -20 24 -31 38 -31 12 0 30
-8 40 -17 29 -26 49 -7 80 76 16 40 34 82 42 93 8 11 12 27 9 34 -3 8 0 14 6
14 6 0 14 18 17 40 4 24 12 40 20 40 8 0 11 6 8 15 -4 8 -9 13 -14 10 -4 -2
-18 8 -31 22 l-24 27 28 -17 c15 -10 27 -13 27 -8 0 5 8 11 18 13 11 3 26 26
36 54 10 27 24 63 31 79 7 17 27 66 44 110 18 44 34 85 37 92 3 6 -5 14 -18
18 -13 3 -32 10 -43 15 -64 29 -138 60 -144 60 -4 0 -14 -17 -24 -37z m12
-172 c-15 -5 -22 6 -14 19 6 9 10 9 16 -1 5 -8 4 -15 -2 -18z m12 -57 c12 -14
11 -16 -5 -13 -11 2 -21 10 -24 17 -5 17 13 15 29 -4z m-61 -82 c0 -7 -4 -10
-10 -7 -5 3 -10 16 -10 28 0 18 2 19 10 7 5 -8 10 -21 10 -28z m100 8 c0 -5
-2 -10 -4 -10 -3 0 -8 5 -11 10 -3 6 -1 10 4 10 6 0 11 -4 11 -10z m-150 -90
c-6 -11 -12 -20 -14 -20 -2 0 -2 9 1 20 3 11 9 20 15 20 5 0 4 -9 -2 -20z m56
-27 c-7 -7 -26 7 -26 19 0 6 6 6 15 -2 9 -7 13 -15 11 -17z m-113 -220 c-7 -2
-19 -2 -25 0 -7 3 -2 5 12 5 14 0 19 -2 13 -5z"/>
<path d="M3846 9262 c-3 -5 -27 -15 -53 -21 -27 -6 -72 -21 -101 -33 -41 -16
-52 -24 -46 -37 12 -30 105 -306 116 -346 6 -22 18 -46 26 -52 9 -7 11 -13 5
-13 -18 0 12 -73 33 -81 12 -4 26 0 37 9 20 18 21 12 5 -23 -13 -29 -28 -33
-28 -8 0 12 -3 14 -11 6 -12 -12 15 -91 37 -109 8 -6 11 -14 8 -17 -4 -3 -3
-22 0 -42 6 -32 9 -35 34 -29 15 4 41 14 57 24 17 9 56 23 88 30 63 15 91 35
66 50 -9 6 -23 1 -43 -18 -29 -26 -29 -26 2 11 18 22 31 42 29 45 -1 4 -11 24
-20 45 -10 21 -22 35 -27 32 -13 -8 -13 8 0 21 10 10 -18 100 -36 112 -5 4
-10 22 -10 39 -1 18 -11 56 -22 85 -12 29 -40 114 -64 188 -30 95 -48 136 -60
138 -9 2 -19 -1 -22 -6z m-26 -111 c0 -10 -30 -24 -37 -17 -3 3 -2 9 2 15 8
13 35 15 35 2z m180 -306 c0 -8 -7 -15 -15 -15 -16 0 -20 12 -8 23 11 12 23 8
23 -8z m-85 -96 c-4 -5 -13 -9 -22 -9 -13 0 -13 3 -3 15 13 15 35 11 25 -6z
m-68 -51 c-3 -7 -5 -2 -5 12 0 14 2 19 5 13 2 -7 2 -19 0 -25z"/>
<path d="M7247 9043 c-3 -5 -8 -23 -12 -42 -4 -19 -15 -48 -24 -65 -30 -53
-41 -94 -28 -100 7 -2 4 -5 -6 -5 -10 -1 -15 -6 -12 -12 4 -6 -1 -17 -11 -24
-18 -13 -18 -14 1 -30 20 -16 20 -16 -1 -10 -19 5 -24 -1 -38 -41 -19 -57 -20
-71 -3 -77 6 -2 2 -2 -10 -1 -17 3 -24 -3 -33 -32 -12 -34 -11 -38 16 -60 31
-25 22 -33 -11 -11 -17 12 -22 11 -37 -5 -10 -10 -16 -18 -13 -18 3 0 -1 -13
-9 -29 -11 -19 -12 -31 -4 -39 7 -7 4 -12 -10 -16 -20 -7 -39 -64 -25 -77 5
-4 47 -28 94 -53 76 -41 88 -44 99 -31 10 12 10 18 0 30 -10 12 -10 15 2 15
15 0 48 49 48 72 0 7 12 36 26 63 17 35 23 59 19 79 -3 16 -2 27 1 23 10 -9
43 32 51 62 3 14 24 64 45 109 21 46 38 89 38 96 0 6 13 38 30 71 31 64 36 85
20 85 -6 0 -49 18 -96 40 -90 42 -100 45 -107 33z m13 -328 c11 -13 10 -14 -4
-9 -9 3 -16 10 -16 15 0 13 6 11 20 -6z m-95 -155 c-3 -5 -11 -10 -16 -10 -6
0 -7 5 -4 10 3 6 11 10 16 10 6 0 7 -4 4 -10z m-75 -70 c0 -5 -2 -10 -4 -10
-3 0 -8 5 -11 10 -3 6 -1 10 4 10 6 0 11 -4 11 -10z"/>
<path d="M5263 8955 c4 -25 14 -56 23 -70 18 -28 113 -93 142 -98 11 -2 27 -8
35 -15 12 -10 46 -15 166 -25 21 -2 24 3 28 42 6 61 -10 87 -62 100 -52 13
-100 51 -109 86 -6 25 -7 25 -118 25 l-111 0 6 -45z"/>
<path d="M6815 8920 c18 -21 18 -23 2 -17 -15 5 -22 -2 -38 -39 -21 -47 -19
-88 3 -66 16 16 29 15 22 -1 -3 -9 16 -22 53 -39 152 -68 176 -78 189 -78 13
0 64 88 64 110 0 6 -26 22 -57 36 -32 14 -86 39 -119 55 -34 16 -67 29 -73 29
-7 0 -24 8 -39 17 l-27 17 20 -24z"/>
<path d="M4475 8823 c-29 -7 -125 -39 -160 -54 -16 -7 -48 -18 -70 -25 -22 -7
-61 -20 -86 -29 l-46 -16 19 -56 c10 -31 18 -62 18 -70 0 -7 7 -13 15 -13 20
0 224 67 238 78 7 5 36 15 65 22 37 8 52 17 52 28 0 12 3 14 8 5 6 -10 15 -10
40 -1 37 14 38 20 12 68 -11 19 -22 43 -26 53 -6 17 -35 21 -79 10z m80 -53
c3 -5 1 -10 -4 -10 -6 0 -11 5 -11 10 0 6 2 10 4 10 3 0 8 -4 11 -10z"/>
<path d="M2775 8697 c-16 -12 -51 -38 -77 -59 -25 -21 -58 -43 -72 -49 -31
-15 -40 -38 -26 -73 5 -15 10 -38 10 -51 0 -12 6 -45 14 -71 22 -72 57 -215
61 -242 1 -13 10 -31 20 -40 17 -16 17 -16 11 3 -6 15 -4 17 5 8 6 -6 9 -19 5
-28 -5 -14 -9 -15 -21 -5 -10 8 -15 9 -15 2 0 -6 4 -13 9 -17 5 -3 12 -19 16
-35 4 -17 11 -30 15 -30 5 0 7 -6 4 -14 -11 -28 23 -151 55 -198 l32 -48 30
15 c16 9 29 19 29 23 0 4 23 25 51 47 65 52 75 69 55 100 -9 14 -16 31 -16 40
0 8 -8 15 -17 15 -14 0 -15 2 -5 9 11 6 10 15 -1 47 -8 21 -29 89 -47 149 -18
61 -39 130 -47 154 -7 24 -17 64 -20 88 l-6 44 114 -70 c108 -67 137 -91 107
-91 -13 0 -121 -76 -125 -88 -2 -4 8 -40 20 -80 l24 -72 49 37 c27 21 76 59
108 85 33 26 63 48 68 48 4 0 39 -20 77 -45 38 -25 73 -45 76 -45 4 0 39 24
79 53 39 30 86 62 104 72 17 11 32 22 32 26 0 4 -40 30 -90 57 -76 42 -90 48
-90 32 0 -13 -5 -17 -20 -13 -25 7 -26 19 -3 27 19 8 21 6 -92 64 -33 17 -147
79 -254 137 -107 58 -197 105 -200 104 -3 0 -19 -10 -36 -22z m156 -810 c-10
-9 -11 -8 -5 6 3 10 9 15 12 12 3 -3 0 -11 -7 -18z"/>
<path d="M8070 8404 c-52 -24 -94 -48 -93 -54 2 -5 -4 -7 -11 -4 -16 6 -289
-112 -294 -127 -2 -5 -12 -9 -22 -9 -42 0 -138 -46 -187 -89 l-53 -46 78 -72
c79 -75 94 -80 132 -48 8 7 26 15 40 17 14 2 24 9 22 16 -1 8 2 11 7 7 6 -3
82 31 170 75 88 44 162 80 165 80 17 0 115 72 119 87 2 10 2 -2 0 -27 -3 -25
-8 -47 -13 -50 -8 -5 -43 -81 -55 -118 -4 -13 -16 -44 -27 -69 l-20 -45 -57
56 c-31 31 -65 56 -76 56 -11 0 -46 -12 -78 -27 l-57 -28 105 -100 106 -100
-25 -64 c-14 -35 -30 -69 -36 -76 -7 -9 14 -36 85 -106 53 -52 100 -95 104
-97 4 -1 18 37 31 85 13 48 26 90 29 93 4 3 24 59 45 125 21 66 62 192 92 280
29 88 56 178 59 200 6 39 5 41 -62 100 -37 33 -81 74 -98 91 l-30 31 -95 -43z"/>
<path d="M5070 8414 c-363 -44 -675 -116 -860 -197 -19 -8 -66 -28 -105 -43
-184 -73 -429 -212 -656 -373 -77 -55 -198 -158 -294 -251 -185 -179 -294
-311 -446 -536 -40 -60 -80 -121 -90 -135 -32 -48 -174 -332 -212 -425 -55
-133 -110 -308 -152 -478 -40 -164 -41 -168 -92 -235 -34 -44 -43 -61 -92
-173 -37 -84 -22 -131 33 -103 16 8 39 15 51 15 l24 0 -6 -162 c-6 -154 2
-287 28 -478 15 -119 54 -295 100 -457 37 -128 147 -404 201 -503 23 -41 58
-106 78 -145 39 -75 50 -92 149 -236 170 -249 422 -523 646 -702 242 -195 555
-377 825 -482 189 -73 476 -154 620 -174 41 -6 108 -16 149 -21 114 -16 449
-22 611 -10 532 39 1080 242 1535 569 131 94 215 164 346 289 99 95 150 150
319 344 l25 29 89 -25 c109 -32 217 -35 244 -8 10 10 42 64 70 119 56 110 49
104 157 118 66 9 149 41 185 71 21 18 36 46 50 94 18 62 26 73 66 101 56 38
83 93 84 166 0 49 3 55 49 101 61 61 73 110 47 206 -17 62 -17 62 8 116 27 58
34 129 16 174 -5 14 -25 43 -45 64 l-35 40 89 188 c82 172 140 264 169 264 20
0 53 51 86 134 40 101 44 142 18 177 -45 58 -52 125 -22 221 26 84 26 138 -2
173 -25 32 -74 55 -118 55 -21 0 -48 14 -89 48 -87 70 -211 140 -341 194 -153
63 -179 62 -195 -4 -5 -21 -1 -33 19 -53 14 -14 26 -30 26 -36 0 -5 -18 -45
-40 -88 -42 -85 -64 -101 -137 -101 -46 0 -72 -28 -127 -139 -46 -90 -55 -124
-36 -136 6 -3 6 -15 0 -29 -5 -13 -6 -34 -3 -46 4 -15 -29 -109 -98 -282 -95
-239 -105 -259 -124 -252 -11 5 -56 8 -101 9 -72 0 -85 -3 -122 -27 -62 -41
-74 -67 -83 -172 -5 -58 -17 -117 -33 -160 -15 -38 -29 -93 -32 -122 -4 -30
-9 -54 -11 -54 -11 0 -92 46 -166 95 -117 76 -174 103 -241 113 -55 9 -179 2
-238 -13 -25 -6 -27 -5 -38 52 -6 32 -18 78 -26 102 -8 25 -14 46 -14 48 0 1
19 15 43 29 23 14 54 39 69 56 27 29 31 40 62 148 8 30 34 114 56 186 22 72
40 138 40 147 0 23 32 87 44 87 27 0 281 -164 331 -214 7 -7 48 -30 92 -52 71
-35 86 -39 176 -42 119 -5 167 10 229 71 105 103 142 194 142 352 0 114 0 112
-68 300 -18 51 -28 105 -35 200 -18 243 -83 375 -230 470 -141 91 -274 126
-476 126 -311 -1 -637 -88 -830 -222 -46 -31 -129 -110 -164 -154 -68 -88
-117 -254 -106 -361 8 -73 32 -123 88 -183 78 -80 156 -115 337 -146 137 -23
140 -24 140 -38 0 -8 -17 -56 -39 -108 -105 -256 -124 -299 -130 -299 -3 0
-29 19 -56 43 -69 60 -131 100 -193 127 -60 26 -72 45 -72 119 0 138 -95 358
-213 492 -105 118 -215 188 -385 245 l-82 27 23 29 c62 83 87 125 93 154 l6
32 166 -1 167 -2 75 35 c92 43 245 155 365 269 91 85 245 258 245 274 0 5 13
26 30 47 35 45 52 86 45 110 -4 13 -45 30 -138 60 -227 72 -280 88 -342 100
-33 7 -90 27 -126 45 -76 39 -169 65 -229 65 -42 0 -42 0 -37 33 6 44 -12 74
-74 125 -65 53 -138 75 -243 74 -68 -1 -91 4 -160 32 -206 85 -489 105 -779
56 -105 -18 -273 -64 -332 -90 -175 -78 -309 -152 -414 -228 -180 -132 -404
-342 -482 -454 -13 -18 -26 -35 -30 -38 -3 -3 -29 -34 -56 -70 -80 -106 -190
-305 -257 -467 l-38 -92 -52 -17 c-129 -41 -431 -214 -489 -279 -18 -20 -18
-19 -12 22 6 39 61 207 85 258 5 11 23 55 39 98 77 197 240 468 425 707 111
144 362 392 499 494 461 343 886 521 1447 603 97 14 183 18 390 17 240 0 281
-3 430 -27 170 -28 215 -38 360 -80 242 -69 558 -216 785 -364 71 -47 132 -89
135 -92 3 -4 41 -36 85 -70 162 -127 340 -306 495 -498 237 -293 441 -694 547
-1073 19 -69 36 -130 38 -136 2 -7 19 -8 45 -5 38 5 45 11 71 57 l28 52 -33
118 c-35 122 -71 223 -126 354 -33 79 -181 367 -210 410 -10 14 -48 72 -86
130 -198 306 -521 639 -829 852 -345 239 -732 407 -1125 488 -213 44 -291 52
-570 55 -151 2 -291 1 -310 -1z m105 -679 c91 -16 186 -45 240 -73 19 -10 71
-18 140 -22 126 -8 188 -32 243 -94 44 -50 30 -85 -48 -118 -25 -11 -59 -30
-77 -44 -17 -13 -35 -24 -40 -24 -15 0 -55 -73 -67 -125 -7 -26 0 -22 61 40
37 39 93 84 123 100 48 25 65 29 135 29 44 -1 100 -7 125 -14 l45 -14 -57 -7
c-32 -3 -71 -12 -87 -19 -40 -16 -78 -67 -87 -116 l-7 -38 57 61 c94 102 124
103 486 12 222 -55 336 -92 332 -108 -3 -15 -111 -173 -126 -186 -7 -5 -43
-44 -80 -85 -97 -106 -196 -192 -306 -265 -121 -80 -161 -100 -233 -115 -57
-11 -83 -11 -457 6 -153 7 -214 17 -282 46 -54 23 -173 120 -237 192 -80 91
-252 254 -284 270 -44 20 -89 21 -127 1 -42 -22 -37 -35 13 -35 23 0 49 -5 57
-10 13 -9 13 -10 -1 -10 -8 0 -51 -26 -95 -58 -164 -121 -295 -316 -298 -445
-1 -64 29 -92 109 -102 57 -8 344 23 450 47 50 11 50 11 21 21 -20 7 -35 6
-48 -2 -23 -14 -81 -14 -96 1 -9 9 -16 5 -32 -15 -16 -20 -30 -27 -56 -27 -19
0 -34 3 -34 8 0 4 -7 15 -15 26 -13 18 -15 18 -43 -3 -35 -25 -84 -27 -106 -5
-42 41 1 187 70 240 53 41 70 28 100 -75 4 -11 7 -11 22 1 26 24 82 49 92 43
5 -3 12 -26 16 -50 7 -49 20 -55 64 -30 34 19 50 18 50 -3 0 -10 7 -28 16 -41
16 -23 43 -25 85 -7 13 5 18 0 23 -25 6 -31 7 -31 49 -24 129 21 181 25 377
25 118 0 225 -3 237 -6 21 -6 21 -8 7 -29 -15 -24 -17 -24 -152 -18 -80 3
-171 1 -217 -6 -80 -11 -226 -52 -207 -59 5 -1 52 4 103 12 52 8 137 18 189
21 52 3 130 8 173 10 58 4 77 2 77 -7 0 -19 -60 -92 -151 -184 -90 -92 -187
-149 -279 -163 -59 -10 -258 2 -348 20 -69 14 -77 5 -19 -20 111 -48 308 -79
406 -65 84 12 180 64 249 136 l63 65 85 -24 c116 -32 178 -58 233 -95 184
-127 302 -336 327 -580 l7 -68 -42 0 c-50 0 -181 -19 -199 -29 -7 -4 45 -13
117 -19 176 -16 295 -64 410 -168 64 -58 79 -87 73 -142 -3 -30 4 -67 22 -121
l27 -78 -40 -97 c-22 -53 -48 -111 -58 -129 -19 -31 -20 -32 -83 -28 -36 2
-85 10 -110 17 -96 29 -163 7 -243 -79 l-48 -52 -40 45 c-94 105 -138 215
-169 416 -9 59 -8 86 5 149 8 42 16 125 16 184 1 152 -33 237 -156 391 -57 71
-105 119 -105 104 0 -5 16 -38 36 -74 120 -221 163 -451 115 -622 -42 -154
-102 -173 -215 -68 -67 61 -119 145 -153 243 l-28 82 -6 -55 c-15 -118 -22
-148 -60 -226 -35 -74 -116 -174 -140 -174 -5 0 -18 19 -30 43 -34 68 -105
162 -154 205 -25 22 -83 65 -130 97 -47 31 -85 61 -85 65 0 5 9 46 20 93 36
150 22 323 -31 401 -22 32 -41 44 -23 15 13 -21 16 -218 4 -292 -20 -132 -87
-274 -180 -387 -33 -40 -59 -62 -165 -146 -19 -15 -19 -15 10 -9 90 19 218 99
293 186 24 27 50 49 58 49 41 0 153 -72 220 -141 126 -132 184 -277 184 -465
0 -129 -6 -154 -38 -154 -30 0 -105 -34 -123 -56 -11 -14 -9 -16 21 -14 85 5
86 0 6 -35 -44 -19 -92 -47 -109 -62 -41 -40 -97 -129 -96 -156 0 -21 1 -21
12 -2 29 47 111 124 159 148 113 57 208 57 342 -2 83 -36 307 -154 301 -159
-2 -2 -57 -7 -122 -11 l-118 -7 55 -12 c76 -18 461 -33 524 -21 53 10 96 32
96 50 0 7 -12 8 -31 4 l-30 -7 17 39 c9 21 20 55 25 76 15 64 57 134 109 187
28 28 50 53 50 55 0 10 -60 -26 -95 -56 -19 -17 -35 -29 -35 -26 0 25 42 91
89 138 65 65 107 79 171 60 20 -6 62 -11 91 -11 74 0 86 -9 69 -52 -21 -53
-27 -57 -68 -47 -20 5 -46 8 -57 8 -42 0 24 -37 95 -53 70 -16 205 -20 250 -7
24 7 24 8 -12 20 -37 12 -56 47 -20 37 9 -2 33 -8 52 -11 135 -26 199 -156
128 -261 -24 -36 -36 -45 -177 -132 -119 -74 -79 -67 145 25 8 3 14 -18 18
-60 11 -100 -17 -147 -124 -210 -107 -63 -122 -95 -30 -62 23 8 44 15 46 15 2
0 4 -22 4 -48 0 -70 -34 -130 -94 -167 -27 -16 -84 -62 -127 -102 -81 -74
-119 -92 -243 -113 -266 -46 -322 -61 -386 -105 -98 -67 -367 -192 -470 -219
-106 -27 -287 -46 -438 -46 -149 0 -144 7 51 76 117 40 149 56 97 48 -116 -18
-242 -50 -342 -85 -194 -70 -268 -60 -355 51 -24 30 -59 74 -79 98 -19 23 -33
42 -29 42 3 0 32 -13 65 -30 68 -34 78 -37 59 -14 -23 28 -150 109 -256 163
-86 44 -114 65 -177 132 -104 111 -178 243 -207 374 -22 96 -22 100 -6 88 6
-6 35 -18 63 -27 68 -22 211 -142 289 -241 32 -43 61 -72 63 -66 2 6 -27 61
-64 122 -74 122 -138 184 -231 225 -47 21 -149 44 -197 44 -17 0 -18 -2 -4
-17 22 -25 48 -79 48 -98 0 -9 15 -48 34 -86 19 -38 32 -69 29 -69 -6 0 -66
45 -126 94 -98 80 -245 309 -275 427 -6 25 -16 104 -21 175 -6 71 -17 152 -26
179 -15 52 -92 181 -101 172 -3 -3 -1 -15 6 -26 31 -58 52 -152 56 -246 5 -97
4 -99 -12 -70 -17 32 -94 128 -106 133 -16 7 -109 143 -152 223 -42 79 -61
137 -104 329 l-10 45 -1 -40 c-2 -72 27 -228 59 -320 48 -136 91 -223 166
-337 38 -56 75 -114 83 -128 17 -31 112 -293 107 -297 -5 -5 -138 166 -167
216 -15 24 -38 80 -50 124 -22 72 -29 84 -77 126 -95 82 -183 217 -216 331
-21 71 -46 249 -46 325 0 74 27 218 75 398 20 76 35 146 33 155 -4 19 -55 -84
-82 -166 -10 -29 -20 -52 -22 -52 -3 0 -23 15 -44 33 -30 24 -40 39 -40 63 0
17 -11 57 -25 90 l-24 59 -1 -66 c0 -41 -5 -72 -15 -85 -8 -10 -15 -14 -15 -7
0 17 -64 33 -128 33 -72 0 -183 -18 -248 -40 -67 -23 -68 -18 -16 82 53 102
138 214 213 281 151 133 354 266 504 332 80 34 105 34 87 -1 -14 -28 -55 -214
-48 -221 7 -7 38 64 72 162 85 249 213 500 361 704 92 128 109 147 254 291
303 302 688 508 1039 555 69 9 132 18 140 20 33 9 300 -6 385 -20z m-458 -827
c6 -7 16 -32 23 -54 12 -40 13 -41 40 -31 37 14 57 -2 71 -59 11 -43 23 -56
31 -32 8 24 55 -8 68 -46 9 -27 17 -36 34 -36 26 0 52 -25 58 -55 1 -10 12
-22 23 -25 36 -9 75 -42 75 -61 0 -12 -11 -24 -27 -30 -22 -8 -32 -6 -55 11
-20 14 -33 18 -41 12 -7 -5 -22 -13 -34 -16 -18 -6 -22 -2 -28 23 -9 41 -18
45 -48 21 -14 -11 -32 -20 -41 -20 -20 0 -36 31 -36 69 0 35 -18 51 -34 29 -6
-8 -23 -18 -37 -21 -22 -6 -27 -2 -37 26 -7 19 -12 45 -12 60 0 32 -14 42 -31
21 -24 -29 -89 -56 -104 -44 -20 16 -28 101 -15 146 17 56 62 118 88 122 12 2
22 8 22 13 0 12 32 -4 47 -23z m2763 -288 c259 -74 409 -259 410 -507 1 -104
35 -243 77 -309 7 -12 18 -57 25 -100 13 -95 3 -143 -45 -206 -95 -125 -284
-118 -454 17 -159 125 -326 219 -438 245 -27 7 -93 25 -145 41 -52 15 -123 33
-158 38 -34 5 -66 12 -70 15 -5 3 -44 14 -88 26 -212 56 -334 164 -334 295 0
96 59 177 192 268 143 98 260 140 506 183 178 31 403 28 522 -6z m-1240 -535
c13 -45 8 -122 -9 -168 -9 -21 -10 -20 -26 17 -13 31 -15 54 -10 105 11 105
25 119 45 46z m2310 8 c148 -59 266 -126 353 -202 40 -34 43 -39 31 -56 -13
-18 -17 -16 -67 31 -28 28 -70 64 -92 81 -53 40 -194 111 -274 137 -36 12 -67
27 -69 35 -6 17 26 10 118 -26z m46 -78 c41 -20 74 -40 74 -46 0 -6 -4 -9 -9
-7 -67 26 -171 75 -171 81 0 15 35 6 106 -28z m-2166 -118 c41 -19 99 -41 128
-48 50 -12 52 -14 52 -46 0 -20 4 -32 10 -28 6 3 10 18 10 32 0 19 4 24 16 19
9 -3 27 -9 41 -12 17 -5 23 -12 20 -23 -3 -9 -11 -37 -18 -63 -13 -48 -29 -64
-29 -30 -1 16 -1 16 -14 -1 -12 -16 -21 -17 -76 -8 -90 15 -183 48 -238 84
-44 30 -47 36 -52 82 l-5 50 -13 -30 c-11 -27 -11 -23 -6 35 10 117 10 117 58
66 26 -28 69 -57 116 -79z m2100 83 c39 -20 43 -34 18 -67 -6 -7 -7 -16 -4
-21 8 -13 -28 -22 -86 -22 l-48 0 32 65 c18 36 36 65 41 65 4 0 25 -9 47 -20z
m269 -124 l35 -36 -60 21 c-32 11 -60 22 -62 24 -2 2 1 13 8 24 13 26 29 19
79 -33z m-64 -51 c86 -29 131 -57 166 -106 l22 -31 -34 18 c-29 15 -32 15 -21
1 8 -9 11 -21 8 -26 -4 -5 -2 -12 3 -15 5 -4 8 -17 6 -31 -1 -15 4 -29 14 -35
47 -27 -18 -1 -172 69 -94 43 -220 98 -279 121 -59 24 -106 45 -105 47 12 11
129 21 212 19 75 -3 120 -10 180 -31z m339 14 c18 -14 26 -30 26 -52 0 -38
-40 -179 -50 -175 -4 2 -33 31 -65 66 l-58 63 12 39 c13 43 52 80 86 80 12 0
34 -9 49 -21z m-2249 -29 c52 -11 205 -57 240 -71 11 -5 44 -18 72 -29 74 -28
172 -78 211 -108 30 -23 33 -29 27 -61 -12 -65 -32 -102 -51 -94 -11 4 -15 3
-10 -5 3 -6 -19 6 -50 26 -32 20 -60 37 -63 38 -3 1 -33 13 -66 28 -60 27 -60
28 -57 65 5 50 -11 59 -51 28 -23 -18 -41 -23 -60 -20 -23 5 -27 10 -27 38 0
48 -28 55 -61 14 -16 -19 -29 -28 -33 -21 -3 6 -19 13 -35 17 -25 5 -29 11
-27 37 2 42 -19 46 -42 9 -22 -36 -32 -31 -32 15 0 51 29 116 49 110 9 -3 39
-10 66 -16z m1595 -50 c217 -86 563 -248 655 -306 28 -19 45 -36 45 -49 0 -38
-64 -185 -81 -185 -9 0 -87 34 -174 76 -147 70 -526 240 -659 295 -32 13 -60
29 -63 35 -7 18 77 182 95 186 24 6 72 -8 182 -52z m-1678 -147 c-6 -15 -20
-64 -31 -108 -11 -44 -32 -113 -46 -154 -28 -84 -32 -143 -10 -161 18 -15 46
-6 62 19 17 26 108 254 124 308 9 33 15 40 25 32 10 -8 10 -17 2 -37 -5 -15
-25 -79 -43 -142 -18 -63 -39 -130 -45 -148 -14 -38 -6 -82 16 -82 23 0 84 53
84 73 0 10 9 35 20 55 11 20 38 85 61 144 22 59 48 113 57 120 14 11 15 10 7
-7 -4 -11 -12 -38 -18 -60 -5 -22 -15 -56 -22 -75 -7 -19 -18 -53 -24 -75 -5
-22 -29 -98 -51 -170 -39 -123 -63 -170 -80 -160 -4 3 -24 -2 -44 -10 -45 -19
-90 -18 -146 3 -53 20 -80 64 -80 130 0 23 -4 42 -9 42 -5 0 9 44 31 98 21 53
48 126 60 162 11 36 31 83 43 105 13 22 31 61 40 88 10 26 20 45 23 43 2 -3 0
-18 -6 -33z m152 -7 c-3 -9 -10 -16 -15 -16 -6 0 -5 9 1 21 13 24 24 20 14 -5z
m-77 -7 l30 -10 -30 -72 c-16 -40 -50 -124 -76 -187 -45 -111 -69 -141 -63
-79 1 17 16 76 33 132 17 56 36 125 43 153 11 46 23 74 30 74 2 0 17 -5 33
-11z m220 -26 c-3 -10 -5 -4 -5 12 0 17 2 24 5 18 2 -7 2 -21 0 -30z m-83 -13
c34 -13 33 -31 -7 -115 -19 -39 -42 -95 -52 -125 -10 -30 -23 -66 -30 -80 -7
-14 -18 -37 -24 -52 -6 -16 -15 -28 -20 -28 -13 0 -6 65 14 130 9 30 30 101
45 157 27 96 36 123 45 123 2 0 15 -4 29 -10z m1419 -91 c212 -91 581 -262
605 -282 7 -6 9 -14 4 -19 -4 -4 -81 27 -173 71 -90 43 -254 118 -364 166
-289 125 -305 133 -305 144 0 6 5 11 10 11 6 0 106 -41 223 -91z m-5875 66
c79 -19 128 -44 169 -87 l31 -33 -15 -65 c-20 -83 -22 -379 -4 -465 37 -174
101 -296 224 -430 29 -31 69 -97 110 -180 77 -154 138 -244 267 -390 194 -220
251 -322 276 -490 18 -116 33 -189 49 -236 13 -35 12 -40 -10 -71 -27 -37 -83
-128 -88 -143 -9 -26 -247 189 -389 353 -135 155 -165 194 -253 322 -109 159
-199 318 -271 482 -107 242 -185 517 -230 808 -18 121 -29 416 -19 543 l7 97
41 0 c23 0 70 -7 105 -15z m5042 -82 c25 -17 78 -41 118 -54 40 -13 72 -30 72
-37 0 -7 -7 -29 -15 -49 -15 -36 -15 -36 5 -18 12 11 20 31 20 52 0 29 3 33
26 33 14 0 23 4 19 10 -8 12 15 13 34 1 12 -8 9 -19 -14 -68 -16 -32 -33 -61
-39 -65 -22 -15 -133 -8 -191 12 -73 25 -175 90 -175 111 0 9 9 41 19 72 12
34 16 59 10 63 -8 5 -23 -22 -50 -95 -5 -13 -12 -22 -14 -19 -3 3 4 25 15 49
11 24 20 53 20 65 0 35 12 35 54 1 23 -18 61 -47 86 -64z m1519 63 c-3 -3 -11
5 -18 17 -13 21 -12 21 5 5 10 -10 16 -20 13 -22z m-1085 -40 c-3 -9 -13 -16
-22 -16 -13 0 -12 3 3 20 20 23 29 21 19 -4z m316 -49 c154 -66 603 -274 625
-291 14 -10 5 -33 -78 -207 -52 -108 -100 -200 -106 -203 -30 -19 -17 33 35
135 31 63 71 146 90 186 l32 72 -61 32 c-75 39 -269 120 -275 114 -2 -2 11
-11 30 -21 63 -32 118 -75 118 -92 0 -9 -32 -90 -71 -179 -62 -141 -75 -163
-94 -163 -16 0 -25 8 -29 25 -4 16 -26 38 -61 61 -30 19 -55 39 -55 45 0 19
55 5 64 -17 8 -18 61 -44 90 -44 12 0 6 46 -9 67 -21 29 -97 63 -147 64 l-43
1 43 12 c24 6 53 22 64 36 23 29 15 38 -51 60 l-40 13 -56 -47 c-30 -26 -55
-43 -55 -38 0 5 7 31 15 58 8 27 15 53 15 57 0 7 -83 47 -99 47 -8 0 -105
-140 -129 -186 -10 -18 -7 -23 23 -37 l34 -16 41 64 c22 36 42 65 44 65 2 0
-5 -30 -15 -67 -11 -37 -19 -70 -19 -74 0 -4 14 -12 31 -19 28 -12 32 -11 67
21 79 73 96 86 84 64 -5 -11 -20 -29 -31 -39 -25 -23 -28 -44 -3 -25 15 13 16
12 3 -4 -20 -25 -1 -60 49 -92 22 -14 40 -32 40 -40 0 -26 -38 -16 -74 20 -20
19 -40 35 -45 35 -5 0 -16 3 -24 6 -10 3 -17 -4 -21 -22 -6 -21 -1 -33 20 -55
14 -15 39 -33 54 -39 l28 -11 -21 -50 c-18 -42 -20 -56 -11 -99 l10 -50 -31
-10 c-87 -29 -130 -141 -90 -237 8 -19 15 -37 15 -38 0 -2 -15 -12 -33 -23
-18 -10 -41 -35 -50 -55 -21 -44 -22 -123 -2 -161 14 -27 14 -31 -4 -50 -44
-47 -62 -126 -41 -181 8 -22 -1 -47 -62 -175 -64 -136 -95 -185 -81 -129 5 19
4 20 -15 8 -15 -9 -18 -16 -9 -21 28 -17 -4 -16 -68 4 -82 24 -230 96 -298
144 -54 39 -69 43 -41 13 50 -56 252 -168 374 -207 79 -26 187 -45 201 -37 5
4 39 65 74 136 49 97 69 127 80 123 12 -5 1 -34 -57 -146 -40 -77 -81 -144
-91 -150 -40 -21 -231 30 -383 102 -97 47 -226 131 -254 167 -24 31 -26 23 51
218 213 541 204 520 228 523 27 4 27 4 -31 -143 -74 -186 -138 -358 -135 -362
4 -4 4 -5 135 300 87 205 90 209 129 227 89 40 129 131 139 316 5 93 3 118
-13 166 l-20 58 106 270 c58 148 111 270 116 270 6 0 67 -24 135 -53z m-330
15 c0 -27 -99 -152 -121 -152 -11 0 57 141 73 152 17 10 48 10 48 0z m-1423
-359 c-3 -10 -5 -2 -5 17 0 19 2 27 5 18 2 -10 2 -26 0 -35z m-1241 -60 c7
-43 14 -113 14 -155 l0 -78 -51 -25 c-62 -32 -140 -43 -155 -24 -6 8 -16 38
-23 68 -13 50 -12 55 5 64 38 21 133 137 168 205 10 19 20 31 23 29 3 -3 11
-41 19 -84z m215 -88 c61 -32 73 -48 72 -104 -1 -66 -10 -90 -39 -97 -26 -7
-156 23 -181 41 -9 7 -17 45 -23 115 -5 58 -12 129 -16 157 l-7 53 74 -71 c41
-39 95 -82 120 -94z m1063 13 c9 -21 16 -51 16 -68 0 -36 11 -38 53 -7 32 23
97 50 104 43 2 -2 -14 -11 -35 -19 -49 -20 -88 -65 -103 -120 -23 -86 -84
-268 -86 -260 -2 5 6 35 17 68 28 80 24 93 -6 20 -55 -134 -63 -146 -92 -139
-15 4 -28 8 -30 9 -2 2 10 31 26 66 117 256 127 282 127 349 0 46 -5 72 -18
90 -9 13 -17 36 -17 50 1 22 2 21 14 -10 7 -19 21 -52 30 -72z m251 12 c-3 -6
-21 -17 -38 -26 -36 -19 -31 -9 10 17 34 21 36 22 28 9z m1025 -30 c35 -19 50
-73 50 -177 0 -136 -21 -230 -58 -264 -56 -51 -157 -46 -207 11 -18 20 -20 34
-17 183 3 170 7 187 56 229 42 36 127 44 176 18z m-1123 -266 l6 -72 -43 -31
c-40 -29 -93 -41 -104 -23 -7 12 81 264 96 273 17 11 36 -51 45 -147z m1882
64 c78 -35 179 -105 195 -137 26 -50 20 -111 -15 -164 l-31 -47 21 -60 c34
-99 27 -133 -42 -201 -42 -42 -44 -47 -50 -119 -7 -80 -6 -79 -96 -150 -25
-19 -35 -38 -45 -83 -16 -69 -32 -89 -95 -115 -58 -26 -151 -40 -151 -23 0 6
11 17 25 23 14 6 25 15 25 19 0 5 -33 26 -72 46 -130 68 -170 125 -137 196 23
51 49 53 151 17 51 -18 114 -44 141 -57 26 -13 47 -19 47 -14 0 6 -4 13 -10
16 -17 10 -11 25 8 18 71 -26 -137 81 -232 119 -63 24 -75 41 -76 101 0 41 5
53 29 78 25 24 37 29 81 29 50 0 174 -41 268 -89 51 -26 60 -26 37 -1 -18 20
-17 20 8 20 15 0 27 5 27 10 0 6 -11 10 -24 10 -14 0 -80 27 -147 60 -67 33
-129 60 -139 60 -9 0 -27 12 -41 26 -29 31 -32 105 -5 146 46 70 148 65 314
-16 102 -50 113 -54 98 -32 -21 32 -20 36 5 36 11 0 17 5 14 10 -3 6 -18 10
-32 10 -14 0 -59 18 -101 40 -43 22 -97 46 -121 55 -62 22 -71 32 -71 81 0
101 108 139 239 82z m-3292 -83 c2 -61 -1 -95 -10 -107 -7 -9 -41 -26 -76 -37
-60 -19 -66 -20 -97 -5 l-34 16 0 87 0 87 78 18 c43 10 85 22 93 27 35 23 44
7 46 -86z m111 74 c13 -5 48 -9 78 -9 l54 0 0 -54 c0 -105 -31 -156 -95 -156
-43 0 -104 17 -106 28 -1 4 -3 53 -5 110 l-3 102 27 -6 c15 -4 37 -11 50 -15z
m336 -141 c34 -49 84 -104 109 -124 47 -36 55 -48 39 -58 -5 -3 -17 -42 -27
-87 l-19 -82 -32 37 c-63 73 -106 172 -135 311 -20 96 -24 125 -13 110 9 -11
43 -59 78 -107z m1378 -2 c61 -25 227 -126 228 -138 0 -5 -10 -8 -22 -8 -31
-1 -167 -38 -148 -40 8 -1 76 -5 150 -9 l135 -6 2 -39 c1 -22 14 -62 27 -90
14 -28 22 -53 17 -56 -4 -3 -23 -17 -42 -32 -22 -17 -72 -37 -135 -54 -54 -14
-106 -30 -114 -35 -9 -5 42 -9 126 -9 77 0 143 -2 146 -5 3 -3 -19 -64 -48
-134 -29 -71 -62 -158 -74 -194 -20 -59 -21 -67 -7 -93 8 -16 29 -42 46 -58
l31 -30 -73 -32 c-261 -115 -480 -133 -643 -54 l-59 28 136 1 c158 1 255 21
352 74 75 41 149 89 144 94 -2 2 -38 -10 -80 -27 -127 -51 -189 -63 -306 -58
-94 3 -114 7 -173 35 -38 18 -68 36 -68 42 0 5 5 45 11 87 8 57 17 86 35 106
42 51 65 118 65 186 0 34 -3 67 -6 71 -8 13 39 29 165 54 l114 24 -84 6 c-47
4 -101 12 -121 17 l-37 10 10 47 c16 75 -4 143 -58 199 -51 52 -49 61 20 96
103 53 243 63 338 24z m-630 -108 c-8 -8 -9 -4 -5 13 4 13 8 18 11 10 2 -7 -1
-18 -6 -23z m1108 -53 l28 -30 -30 -72 c-17 -40 -34 -70 -38 -68 -23 14 -38
155 -23 225 l6 33 15 -29 c8 -16 27 -42 42 -59z m-2310 49 c13 -33 13 -84 -1
-123 -10 -28 -29 -43 -29 -22 0 5 -10 11 -22 14 -85 20 -138 58 -138 97 0 15
10 20 48 25 26 3 63 12 82 20 49 18 49 18 60 -11z m140 11 l55 -2 17 -44 c19
-50 23 -146 7 -201 -5 -21 -12 -38 -15 -38 -3 0 -44 23 -91 52 l-85 52 6 45
c3 24 6 68 6 98 0 52 1 54 23 47 12 -4 47 -8 77 -9z m208 -295 c29 -28 52 -52
52 -55 0 -10 -36 -4 -77 13 -24 9 -43 24 -43 32 0 15 11 60 14 60 1 0 26 -23
54 -50z m-1918 -695 c25 -24 58 -54 74 -66 16 -13 45 -38 65 -56 19 -18 63
-48 97 -68 95 -56 187 -137 248 -219 63 -85 104 -120 176 -147 58 -22 125 -24
195 -6 32 7 87 10 150 7 l99 -5 8 -38 c15 -71 189 -399 205 -384 2 3 -9 31
-25 63 -34 68 -66 170 -82 264 -6 36 -13 72 -16 81 -3 13 19 17 153 27 87 7
175 15 195 18 34 6 38 4 45 -22 10 -37 10 -299 1 -341 -4 -18 -4 -33 1 -33 5
0 19 44 32 98 18 72 24 125 24 208 l0 112 70 29 70 29 -3 -116 c-3 -144 -27
-285 -78 -470 -27 -93 -29 -110 -14 -110 6 0 10 8 10 19 0 10 6 24 14 30 8 7
17 24 21 39 3 14 15 45 25 68 11 23 25 63 32 88 7 25 16 46 20 46 4 0 14 -12
21 -27 20 -38 99 -294 94 -300 -10 -9 -329 -18 -467 -12 -245 11 -256 13 -309
73 -110 122 -170 182 -231 230 -68 55 -181 129 -240 158 -53 26 -147 60 -128
46 10 -7 65 -46 123 -87 117 -82 241 -207 294 -295 19 -31 32 -59 29 -62 -6
-6 -199 45 -328 88 -171 56 -381 151 -559 253 -88 51 -241 157 -241 168 0 13
94 162 108 171 5 3 38 -10 73 -28 63 -34 228 -81 252 -73 7 2 -8 14 -33 27
-78 39 -183 115 -227 163 -77 83 -97 148 -107 337 -5 85 -3 101 7 86 6 -10 32
-38 57 -61z m3847 -20 c23 -14 43 -29 43 -32 0 -27 -284 -328 -415 -439 -118
-100 -281 -222 -343 -256 -24 -12 -59 -32 -77 -43 -117 -70 -173 -100 -247
-131 -46 -20 -105 -46 -133 -59 -90 -41 -118 -51 -260 -92 -125 -36 -304 -81
-391 -98 -31 -6 -32 -5 -44 47 -16 69 -49 168 -97 293 l-38 100 3 153 4 153
42 26 c92 58 180 118 195 134 17 18 81 39 117 39 l22 0 -19 -61 c-25 -79 -24
-112 4 -144 27 -32 88 -43 140 -26 42 14 84 80 111 169 23 80 50 117 94 132
22 7 66 32 98 57 67 50 77 50 199 6 245 -89 338 -99 515 -59 94 22 234 73 395
146 30 13 34 12 82 -15z m-1418 -232 c-36 -114 -51 -144 -79 -158 -67 -34
-130 -8 -130 53 l1 37 15 -35 c18 -42 29 -50 71 -50 42 0 64 30 100 131 27 77
46 96 22 22z m-171 -8 c-6 -14 -13 -23 -15 -21 -5 5 15 46 22 46 3 0 -1 -11
-7 -25z m117 -11 c-11 -62 -36 -104 -61 -104 -34 0 -44 27 -28 73 19 55 31 67
66 67 29 0 30 -1 23 -36z"/>
<path d="M4833 7649 c-24 -11 -56 -37 -73 -57 -17 -21 -40 -48 -51 -61 -33
-40 -17 -42 56 -7 107 51 170 60 257 35 49 -14 210 -121 281 -188 26 -24 50
-41 54 -38 12 13 -83 141 -156 209 -97 90 -175 128 -263 128 -44 0 -76 -6
-105 -21z"/>
<path d="M5559 7467 c-44 -23 -110 -109 -95 -124 3 -4 24 12 45 34 45 46 114
83 157 83 28 1 28 1 10 15 -28 21 -66 18 -117 -8z"/>
<path d="M4834 7336 c-22 -7 -55 -21 -73 -32 -27 -16 -29 -20 -14 -26 10 -3
34 -7 54 -7 38 -1 102 -40 67 -41 -11 0 -21 -14 -29 -40 -7 -22 -14 -40 -16
-40 -2 0 -18 10 -34 23 -27 19 -43 22 -127 22 -73 0 -105 -4 -127 -17 -45 -25
-91 -65 -84 -73 4 -3 33 1 65 11 164 47 261 10 458 -175 71 -66 131 -119 134
-117 5 6 -85 143 -99 151 -14 9 -11 35 5 35 7 0 29 11 49 24 21 15 58 27 92
31 132 17 194 55 88 55 -91 0 -146 32 -213 125 -49 67 -61 77 -104 90 -27 8
-50 15 -50 14 -1 0 -19 -6 -42 -13z m130 -122 c12 -32 6 -55 -19 -66 -19 -8
-28 -8 -40 2 -18 15 -20 66 -2 73 25 11 55 6 61 -9z"/>
<path d="M4132 7231 c-137 -106 -226 -275 -239 -451 l-6 -85 -16 35 c-23 53
-19 198 8 288 12 41 20 76 18 79 -14 14 -75 -104 -108 -207 -20 -64 -23 -97
-24 -220 0 -80 2 -158 5 -175 l5 -30 -67 -1 c-93 -3 -202 -22 -273 -49 -101
-38 -205 -98 -205 -119 0 -3 38 8 84 24 72 26 99 30 185 30 55 0 102 -4 105
-9 3 -5 -27 -17 -67 -27 -152 -37 -252 -90 -332 -175 -114 -121 -198 -286
-230 -449 -10 -47 -5 -41 54 73 94 184 186 287 338 382 118 73 371 153 441
140 36 -7 77 -28 222 -116 89 -53 168 -86 250 -104 19 -4 71 -24 115 -45 61
-29 97 -55 145 -104 35 -36 69 -66 75 -66 6 0 29 18 52 39 22 21 54 46 72 55
43 23 39 32 -16 39 -87 11 -99 15 -301 81 -110 36 -207 66 -217 66 -24 0 -129
112 -154 163 -78 162 -24 427 119 590 22 25 40 47 40 50 0 7 -44 -4 -50 -13
-10 -14 -129 -74 -135 -68 -3 3 -1 33 4 67 12 73 78 211 139 293 65 86 56 90
-36 19z"/>
<path d="M5887 7062 c-4 -5 9 -16 28 -25 36 -17 42 -34 24 -68 -10 -20 -10
-20 29 0 71 36 89 65 50 80 -38 14 -125 23 -131 13z"/>
<path d="M3705 6207 c-16 -12 -12 -15 38 -20 61 -8 83 -15 167 -56 91 -44 148
-117 182 -231 l13 -45 3 38 c8 95 -56 238 -126 279 -71 42 -238 63 -277 35z"/>
<path d="M4930 5752 c78 -54 210 -166 238 -204 69 -91 77 -102 77 -115 0 -23
20 -14 21 9 3 45 23 154 42 228 11 41 18 77 16 79 -4 4 -84 -166 -84 -180 0
-17 -11 -9 -57 36 -58 58 -118 100 -198 136 -72 32 -92 36 -55 11z"/>
<path d="M3341 5714 c-23 -51 -41 -150 -41 -228 0 -102 21 -188 75 -302 72
-154 211 -278 370 -328 44 -14 92 -30 108 -35 43 -15 22 6 -36 36 -127 64
-254 180 -339 310 -98 149 -122 231 -122 431 -1 78 -1 142 -2 142 0 0 -6 -12
-13 -26z"/>
<path d="M3090 5403 c0 -30 34 -189 51 -243 54 -161 124 -261 217 -309 85 -43
380 -92 434 -72 19 7 8 12 -57 26 -123 26 -254 64 -299 87 -23 11 -73 54 -113
95 -58 61 -82 97 -127 189 -30 62 -62 138 -71 168 -14 48 -35 83 -35 59z"/>
<path d="M4232 5271 c-15 -129 -41 -232 -86 -338 -19 -46 -31 -83 -26 -83 4 0
27 23 51 51 64 76 89 164 88 304 -2 166 -12 192 -27 66z"/>
<path d="M4170 4643 c1 -118 44 -317 84 -386 61 -104 145 -155 318 -197 42
-10 83 -22 89 -26 8 -4 9 -3 5 5 -4 6 -39 27 -77 46 -194 98 -264 173 -337
360 -22 55 -45 130 -52 168 -15 81 -30 96 -30 30z"/>
<path d="M5250 3821 c-41 -15 -127 -55 -191 -89 -130 -68 -200 -86 -311 -81
-96 5 -191 50 -244 115 -20 24 -39 42 -42 40 -10 -11 71 -137 107 -165 74 -59
123 -74 225 -69 80 3 101 8 169 41 43 20 118 64 168 98 50 35 123 80 162 101
84 44 63 49 -43 9z"/>
<path d="M4570 3424 c0 -18 278 -126 375 -145 188 -37 288 -31 463 26 103 35
234 91 182 79 -335 -76 -609 -71 -932 20 -49 13 -88 22 -88 20z"/>
<path d="M6849 6576 c-175 -34 -289 -86 -389 -177 l-35 -31 30 6 c30 7 30 7 7
-9 -12 -9 -40 -43 -62 -76 -31 -47 -40 -70 -40 -104 0 -36 18 -75 35 -75 2 0
3 26 3 59 0 35 7 71 17 90 22 44 32 31 10 -15 -11 -23 -14 -45 -10 -63 4 -14
9 -53 12 -86 7 -96 51 -132 243 -201 52 -19 105 -34 118 -34 13 0 36 -7 53
-15 16 -9 34 -13 40 -10 5 4 38 -3 72 -14 34 -11 82 -25 107 -32 124 -32 245
-81 304 -122 35 -25 111 -73 169 -106 95 -56 113 -63 174 -67 71 -5 106 5 127
38 18 29 -2 32 -54 8 -51 -24 -51 -24 -103 -5 -50 17 -106 44 -62 30 47 -16
84 -16 137 -1 31 10 68 14 82 10 17 -4 35 0 50 10 60 39 60 168 2 316 -29 73
-38 107 -36 145 7 131 4 172 -14 219 -15 38 -26 51 -55 63 -50 21 -72 43 -66
64 9 27 -9 53 -62 92 -75 54 -175 85 -255 78 -23 -1 -24 -38 -1 -63 15 -17 15
-18 -13 -18 -16 0 -43 9 -61 19 -34 22 -42 23 -121 21 -57 -1 -92 13 -92 35 0
18 16 20 23 3 4 -8 6 -7 6 3 1 18 -21 24 -119 33 -36 3 -96 -3 -171 -18z m231
-47 c30 -36 101 -53 155 -36 27 8 37 6 63 -13 40 -29 129 -34 146 -7 9 15 7
21 -9 34 -11 9 -14 14 -5 11 8 -3 40 -13 70 -22 31 -10 85 -32 120 -49 56 -28
65 -35 62 -57 -2 -17 8 -34 30 -56 38 -36 79 -84 72 -84 -2 0 2 -13 10 -29 21
-40 31 -152 18 -191 -10 -27 -6 -48 33 -165 74 -221 62 -284 -51 -272 -31 3
-67 1 -81 -4 -55 -21 -242 40 -308 101 -56 51 -240 116 -506 180 -96 23 -219
56 -274 73 -91 29 -102 36 -130 74 -16 23 -36 42 -43 42 -9 1 -8 8 4 26 12 18
14 34 9 57 -18 80 -10 131 31 198 69 112 195 169 454 205 52 7 97 13 99 14 3
1 16 -13 31 -30z m477 -25 c-5 -5 -69 16 -82 27 -5 5 12 2 38 -7 27 -9 46 -18
44 -20z"/>
<path d="M6330 5890 c0 -22 5 -40 10 -40 6 0 10 8 10 18 0 9 3 27 6 40 5 16 2
22 -10 22 -12 0 -16 -10 -16 -40z"/>
<path d="M7280 5579 c-6 -11 -10 -28 -8 -37 2 -10 8 -1 15 21 12 41 10 48 -7
16z"/>
<path d="M8204 5696 c-20 -41 -33 -79 -30 -85 11 -17 36 -13 37 7 1 9 2 22 3
27 2 17 39 90 49 96 11 8 1 29 -13 29 -5 0 -25 -33 -46 -74z"/>
<path d="M8842 5507 c7 -7 24 -21 38 -30 22 -16 23 -17 4 -17 -11 0 -25 5 -32
12 -9 9 -12 9 -12 0 0 -7 7 -15 15 -18 8 -4 15 -10 15 -15 0 -5 -12 -4 -27 2
l-28 10 25 -27 c14 -15 19 -24 12 -20 -7 4 -15 1 -18 -8 -5 -12 -11 -13 -24
-6 -25 13 -40 12 -17 -1 25 -14 13 -27 -20 -22 -41 7 -19 -7 130 -83 112 -57
128 -62 134 -47 3 10 17 42 30 72 12 29 23 62 23 71 0 13 -30 34 -96 70 -53
28 -98 49 -101 46 -3 -3 -15 1 -27 9 -25 18 -42 20 -24 2z"/>
<path d="M6837 4993 c-4 -3 -7 -11 -7 -17 0 -6 5 -5 12 2 6 6 9 14 7 17 -3 3
-9 2 -12 -2z"/>
<path d="M7682 5321 c-7 -19 -10 -36 -7 -39 6 -7 26 49 22 62 -2 6 -9 -5 -15
-23z"/>
<path d="M8276 4921 c-4 -7 -5 -15 -2 -18 9 -9 19 4 14 18 -4 11 -6 11 -12 0z"/>
<path d="M7915 3770 c3 -5 8 -10 11 -10 2 0 4 5 4 10 0 6 -5 10 -11 10 -5 0
-7 -4 -4 -10z"/>
<path d="M7961 3604 c0 -11 3 -14 6 -6 3 7 2 16 -1 19 -3 4 -6 -2 -5 -13z"/>
<path d="M7930 3555 c0 -8 5 -15 10 -15 6 0 10 7 10 15 0 8 -4 15 -10 15 -5 0
-10 -7 -10 -15z"/>
<path d="M7725 4902 c-49 -9 -35 -22 23 -22 34 0 62 4 62 9 0 10 -55 18 -85
13z"/>
<path d="M7665 4667 c-24 -18 -41 -133 -23 -155 11 -13 14 -5 19 48 7 73 22
90 80 90 53 0 89 -44 89 -108 0 -34 3 -43 10 -32 24 38 3 129 -35 154 -30 20
-114 21 -140 3z"/>
<path d="M8501 4682 c-15 -28 -25 -102 -15 -102 10 0 38 109 31 117 -3 2 -10
-4 -16 -15z"/>
<path d="M8400 4434 c0 -39 -18 -93 -39 -118 -16 -19 -15 -19 10 -2 42 26 67
102 44 132 -14 18 -14 17 -15 -12z"/>
<path d="M8267 4152 c-22 -25 -31 -71 -18 -102 9 -24 10 -24 10 -3 1 13 10 45
20 73 20 52 16 63 -12 32z"/>
<path d="M8216 3888 c-18 -25 -21 -74 -6 -83 6 -4 10 5 10 20 0 14 7 39 15 55
18 35 3 40 -19 8z"/>
<path d="M1863 7904 c-15 -20 -43 -54 -60 -76 -18 -22 -33 -44 -33 -49 0 -4
-12 -22 -27 -38 -34 -36 -103 -127 -103 -135 0 -3 -11 -17 -25 -32 -14 -15
-25 -30 -25 -35 0 -4 15 -18 33 -30 17 -12 44 -33 59 -47 l26 -24 21 21 c12
12 21 26 21 31 0 6 5 10 10 10 6 0 10 5 10 10 0 6 33 54 73 108 39 53 75 101
79 107 4 5 28 36 52 67 l45 56 -54 46 c-29 25 -58 46 -64 46 -5 0 -23 -16 -38
-36z"/>
<path d="M2088 7685 c-21 -23 -38 -50 -38 -59 0 -9 -4 -16 -10 -16 -5 0 -22
-19 -37 -42 -16 -24 -33 -47 -39 -53 -16 -15 -82 -116 -83 -127 -1 -4 5 -6 12
-5 6 2 2 -1 -10 -7 -13 -5 -23 -13 -23 -17 0 -15 49 -61 58 -55 6 3 12 -1 16
-9 7 -20 25 -19 34 3 4 9 14 17 22 17 13 0 61 60 175 220 22 31 50 70 63 87
28 40 28 43 -8 58 -17 7 -35 21 -41 31 -16 31 -51 21 -91 -26z"/>
<path d="M2403 7538 c-26 -42 -129 -184 -160 -222 -8 -10 -28 -40 -44 -67 -37
-63 -31 -104 18 -137 l36 -23 23 22 c23 22 32 49 16 49 -4 0 -13 -5 -18 -10
-7 -7 -20 0 -40 22 l-29 32 28 -17 c15 -10 32 -15 38 -11 6 3 19 -2 29 -11 17
-15 19 -15 34 7 9 13 12 24 7 26 -5 2 9 20 30 40 30 30 37 43 33 63 -4 18 -3
21 5 9 8 -12 14 -10 35 15 14 17 26 35 26 41 0 6 8 18 18 27 10 10 33 37 50
61 l32 44 -35 21 c-20 11 -37 21 -40 21 -3 0 -14 9 -25 20 -28 28 -36 26 -67
-22z"/>
<path d="M8880 7496 c-41 -23 -102 -60 -135 -81 -33 -22 -68 -43 -78 -47 -9
-4 -20 -14 -23 -22 -3 -8 -12 -12 -20 -9 -8 3 -21 0 -29 -7 -8 -7 -28 -20 -44
-29 -97 -53 -161 -94 -161 -102 0 -5 -8 -9 -18 -9 -23 0 -64 -29 -57 -40 3 -4
-1 -10 -7 -13 -10 -3 -9 -13 5 -41 20 -43 37 -39 37 7 1 29 2 30 14 15 18 -24
30 -23 23 2 -7 27 2 25 44 -6 19 -15 25 -24 15 -20 -25 9 -36 -9 -29 -51 6
-35 -6 -43 -27 -18 -14 17 -40 20 -40 5 0 -18 32 -60 41 -54 5 3 9 -6 9 -20
l0 -26 45 22 c47 23 54 41 17 46 -24 4 -29 17 -11 27 6 4 21 -3 34 -15 l23
-21 43 21 c24 12 51 28 59 34 8 7 42 22 75 35 33 13 65 29 70 35 16 18 63 46
78 46 8 0 32 12 53 27 48 32 105 65 162 92 23 11 42 24 42 28 0 4 -16 34 -35
66 -19 31 -46 82 -60 112 -15 30 -30 55 -33 54 -4 0 -41 -19 -82 -43z m-170
-170 c0 -8 3 -23 7 -33 6 -16 5 -16 -10 -4 -18 15 -23 51 -7 51 6 0 10 -6 10
-14z m10 -60 c0 -3 -4 -8 -10 -11 -5 -3 -10 -1 -10 4 0 6 5 11 10 11 6 0 10
-2 10 -4z m-120 -161 c0 -3 -9 -15 -20 -27 -22 -24 -26 -18 -8 12 12 19 28 27
28 15z m-55 -25 c3 -5 1 -10 -4 -10 -6 0 -11 5 -11 10 0 6 2 10 4 10 3 0 8 -4
11 -10z"/>
<path d="M1537 7468 c-14 -18 -37 -53 -53 -78 -16 -25 -34 -49 -41 -53 -7 -4
-17 -16 -22 -26 -8 -14 -4 -22 20 -40 25 -19 33 -20 45 -10 13 10 17 10 25 -2
5 -8 9 -20 9 -27 0 -7 5 -10 10 -7 6 3 10 0 10 -7 0 -8 14 -22 30 -31 23 -14
30 -15 30 -5 0 8 -5 19 -12 26 -9 9 -9 15 1 25 10 10 12 9 10 -3 -1 -8 1 -22
4 -30 3 -8 7 -24 9 -35 2 -11 11 -20 21 -20 10 0 21 -5 25 -11 4 -5 35 -27 69
-47 34 -21 63 -41 65 -45 2 -4 41 -33 89 -65 57 -39 91 -56 102 -51 11 4 17 1
17 -9 0 -23 39 -47 76 -47 23 0 34 6 42 25 9 20 9 25 -3 25 -7 0 -17 -4 -20
-10 -3 -5 -14 -10 -23 -10 -11 0 -13 3 -5 8 12 7 16 25 14 55 0 10 -5 16 -11
12 -5 -3 -7 -12 -3 -20 5 -15 -8 -21 -20 -9 -14 15 15 44 43 44 17 0 34 7 40
18 8 13 9 7 4 -27 -6 -45 -3 -47 34 -17 11 8 10 11 -5 17 -15 6 -13 8 8 8 28
1 69 48 53 60 -5 3 -69 47 -143 96 -73 50 -140 95 -148 100 -11 8 -20 3 -37
-17 -12 -16 -27 -28 -34 -28 -16 0 -15 10 4 31 10 11 13 25 9 38 -6 20 -115
111 -132 111 -5 0 -45 27 -89 60 -43 33 -82 60 -86 60 -4 0 -18 -15 -31 -32z
m-47 -153 c-7 -8 -17 -15 -22 -15 -6 0 -5 7 2 15 7 8 17 15 22 15 6 0 5 -7 -2
-15z m267 -67 c-3 -8 -6 -5 -6 6 -1 11 2 17 5 13 3 -3 4 -12 1 -19z m-83 -4
c10 -26 7 -56 -6 -52 -18 6 -32 34 -25 52 8 20 23 21 31 0z m133 -156 c-3 -7
-5 -2 -5 12 0 14 2 19 5 13 2 -7 2 -19 0 -25z"/>
<path d="M9044 7234 c-32 -19 -60 -37 -62 -39 -2 -2 26 -65 62 -140 72 -147
80 -191 46 -225 -39 -39 -68 -43 -114 -16 -36 21 -49 40 -103 149 -35 69 -66
128 -71 131 -10 6 -79 -26 -110 -51 l-23 -19 61 -125 c34 -68 68 -136 76 -151
11 -21 12 -33 4 -48 -6 -11 -14 -18 -19 -16 -4 3 -32 -10 -62 -29 -30 -19 -73
-43 -95 -53 -23 -11 -44 -24 -48 -30 -10 -16 25 -82 43 -82 12 0 13 -2 3 -8
-10 -7 -8 -20 9 -60 12 -29 26 -52 31 -52 35 0 217 115 218 138 0 6 4 12 9 12
9 0 27 72 33 128 3 22 5 21 48 -19 79 -74 143 -85 222 -36 62 38 89 80 95 147
6 64 -10 99 -46 101 -9 1 -5 4 9 8 44 12 32 63 -60 246 -45 91 -85 167 -89
170 -5 2 -35 -12 -67 -31z m188 -346 c-9 -9 -15 -9 -24 0 -9 9 -7 12 12 12 19
0 21 -3 12 -12z m-57 -8 c3 -5 -1 -10 -9 -10 -9 0 -16 5 -16 10 0 6 4 10 9 10
6 0 13 -4 16 -10z m-325 -275 c0 -4 -7 -4 -16 -1 -12 5 -15 2 -9 -11 4 -10 9
-29 11 -42 3 -14 7 -28 10 -33 3 -4 3 -8 0 -8 -3 0 -17 17 -31 37 -25 37 -25
37 -25 10 0 -15 -4 -27 -9 -27 -11 0 -21 35 -21 77 0 26 3 30 20 26 14 -4 20
0 20 10 0 13 5 11 25 -7 14 -13 25 -27 25 -31z m-145 -85 c-3 -5 -11 -10 -16
-10 -6 0 -7 5 -4 10 3 6 11 10 16 10 6 0 7 -4 4 -10z"/>
<path d="M1099 6783 c-1 -4 -1 -12 0 -17 1 -5 -4 -4 -11 2 -15 12 -27 -19 -49
-132 -6 -33 -16 -68 -22 -77 -9 -14 -3 -26 29 -64 21 -26 50 -61 64 -78 14
-18 71 -89 127 -159 56 -70 107 -136 113 -147 7 -14 21 -21 40 -21 17 0 30 -4
30 -9 0 -5 35 -18 78 -30 102 -27 172 -40 172 -31 0 4 -21 32 -47 62 -45 52
-115 139 -232 287 -45 57 -93 96 -104 85 -2 -2 -9 7 -15 21 -11 23 -10 25 7
16 10 -6 21 -8 24 -4 4 3 13 1 21 -6 12 -10 99 -35 281 -81 28 -7 74 -21 103
-32 79 -27 90 -25 97 20 3 20 12 66 21 102 23 93 24 91 -23 105 -23 7 -44 11
-46 9 -2 -2 -29 5 -61 16 -31 10 -64 16 -74 13 -9 -3 -13 -2 -9 2 9 10 -36 24
-298 91 -99 25 -188 50 -197 55 -10 6 -19 6 -19 2z m59 -105 c53 -79 75 -118
68 -118 -3 0 -29 37 -59 83 -66 101 -69 107 -63 107 3 0 27 -33 54 -72z"/>
<path d="M9325 6159 c-77 -10 -221 -28 -320 -39 -248 -29 -237 -24 -162 -72
34 -22 80 -55 102 -72 38 -30 103 -51 190 -63 23 -2 102 2 177 11 76 9 158 16
184 16 l47 0 -6 88 c-4 48 -9 102 -13 120 -8 38 0 38 -199 11z"/>
<path d="M1360 6032 c-8 -4 -33 -19 -55 -33 -23 -15 -68 -41 -100 -58 -33 -17
-67 -35 -75 -40 -8 -4 -68 -34 -132 -67 -65 -32 -120 -65 -123 -73 -8 -21 -27
-147 -29 -191 -1 -34 1 -35 49 -48 28 -7 84 -20 125 -28 103 -20 103 -21 120
-27 20 -7 83 -23 205 -53 55 -13 133 -33 174 -44 40 -12 75 -20 76 -18 1 2 11
56 22 121 l20 119 -21 9 c-12 5 -68 18 -126 29 -58 12 -147 32 -198 45 -114
30 -122 31 -122 4 0 -16 -3 -19 -12 -12 -24 18 -61 0 -70 -35 -10 -36 -9 -36
-43 -20 -19 8 -32 8 -52 -1 l-28 -12 25 21 c14 11 42 28 62 37 21 10 38 25 39
33 0 9 3 10 5 4 6 -14 63 11 70 31 3 7 13 11 23 8 18 -5 463 217 468 233 9 27
-255 85 -297 66z m-233 -228 c-9 -9 -28 6 -21 18 4 6 10 6 17 -1 6 -6 8 -13 4
-17z m53 -30 c0 -8 -6 -14 -14 -14 -9 0 -12 7 -9 20 6 22 23 18 23 -6z m-69
-21 c-12 -20 -14 -14 -5 12 4 9 9 14 11 11 3 -2 0 -13 -6 -23z m58 -149 c-8
-10 -20 -29 -27 -43 l-12 -26 6 30 c6 33 21 55 36 55 6 0 4 -7 -3 -16z m-209
-3 c0 -5 -21 -16 -47 -25 -55 -19 -56 -19 -48 -6 3 6 14 10 23 10 9 0 28 7 42
14 14 8 26 14 28 15 1 1 2 -3 2 -8z m635 -161 c-3 -5 -14 -10 -23 -10 -15 0
-15 2 -2 10 20 13 33 13 25 0z"/>
<path d="M9188 5883 l-26 -4 20 -46 c15 -33 19 -60 16 -94 -3 -31 -1 -50 7
-53 6 -2 45 -47 86 -100 41 -54 91 -118 111 -144 21 -26 52 -67 70 -92 45 -64
120 -151 125 -146 3 2 -1 75 -7 162 l-12 158 -61 75 c-34 42 -93 112 -130 156
-38 44 -76 92 -85 108 -17 28 -38 32 -114 20z"/>
<path d="M1349 4506 c-86 -31 -129 -87 -129 -170 0 -90 50 -153 142 -177 55
-15 85 -8 140 34 77 59 98 139 57 224 -35 73 -136 116 -210 89z"/>
<path d="M8950 4502 c-29 -14 -39 -29 -63 -92 -49 -128 -26 -208 70 -243 41
-15 57 -17 89 -8 63 17 99 45 122 95 29 60 28 101 -4 163 -20 42 -35 57 -77
77 -60 31 -90 32 -137 8z"/>
<path d="M1946 3586 c-22 -19 -27 -28 -21 -47 7 -22 6 -23 -7 -6 -13 17 -17
16 -74 -20 -34 -21 -94 -62 -135 -91 -41 -29 -81 -57 -89 -62 -138 -91 -198
-131 -209 -142 -8 -7 -29 -19 -45 -28 -17 -8 -35 -28 -41 -43 -8 -24 -6 -31
10 -44 18 -13 20 -12 23 7 4 21 4 21 24 3 20 -18 21 -18 13 5 -6 21 -5 23 15
17 15 -5 20 -4 16 4 -13 20 6 11 30 -15 30 -31 30 -32 -1 -26 -24 4 -24 3 -14
-27 15 -42 5 -49 -31 -23 -51 38 -57 19 -10 -30 17 -17 30 -37 30 -44 0 -22
18 -25 47 -8 70 43 102 67 98 74 -2 3 1 7 8 7 7 0 52 26 100 57 80 52 88 59
75 74 -19 23 -21 63 -3 56 8 -3 15 -15 17 -27 5 -33 21 -30 89 17 35 25 105
74 156 108 51 35 95 69 97 76 11 25 -52 112 -81 112 -7 0 -10 6 -7 14 5 14
-33 76 -45 76 -3 -1 -19 -11 -35 -24z m44 -27 c0 7 4 10 10 6 10 -6 -8 -55
-21 -55 -8 0 -19 26 -19 47 0 13 3 13 15 3 11 -9 15 -9 15 -1z m-162 -270 c-3
-8 -7 -3 -11 10 -4 17 -3 21 5 13 5 -5 8 -16 6 -23z m-328 -259 c0 -5 -2 -10
-4 -10 -3 0 -8 5 -11 10 -3 6 -1 10 4 10 6 0 11 -4 11 -10z"/>
<path d="M8421 3492 c-45 -17 -211 -167 -211 -190 0 -6 25 -30 56 -54 l56 -42
27 31 c37 44 90 65 122 48 32 -18 50 -1 95 85 19 36 40 73 47 83 14 21 3 31
-53 47 -48 14 -87 11 -139 -8z"/>
<path d="M2089 3337 l-57 -43 34 -39 c19 -22 34 -45 34 -50 0 -6 26 -39 58
-75 32 -36 72 -85 89 -110 17 -25 45 -61 62 -79 27 -29 33 -31 53 -20 34 18
98 69 98 79 0 5 -12 22 -26 37 -14 15 -39 47 -55 70 -16 23 -37 48 -47 55 -9
7 -25 25 -34 39 -9 14 -34 47 -55 72 -21 26 -48 60 -61 77 -13 16 -27 30 -30
30 -4 0 -32 -20 -63 -43z"/>
<path d="M8703 3317 c-43 -16 -169 -123 -245 -208 -113 -126 -184 -158 -217
-98 -18 33 -4 93 34 138 l25 29 -47 41 c-27 22 -53 41 -60 41 -17 0 -81 -101
-116 -185 -24 -56 -30 -83 -29 -133 2 -73 17 -107 66 -150 68 -59 164 -63 251
-10 52 32 133 107 151 141 8 15 20 27 28 27 16 0 46 32 46 49 0 9 -6 9 -22 1
-22 -11 -22 -11 -3 4 11 8 27 21 35 29 8 8 27 17 41 20 15 4 37 23 53 47 27
41 43 53 32 24 -5 -13 -1 -15 21 -10 20 5 24 4 14 -3 -12 -8 -9 -13 17 -28 18
-10 32 -24 32 -30 0 -7 10 -13 23 -14 19 0 20 -1 4 -8 -18 -6 -68 -109 -70
-142 -1 -9 -7 -15 -14 -12 -7 3 -13 1 -13 -3 1 -14 78 -46 91 -38 7 4 9 0 5
-14 -11 -35 21 -35 48 1 37 50 48 75 35 82 -7 5 -6 11 4 18 20 17 57 111 57
146 0 42 -33 42 -77 -1 -18 -17 -35 -30 -37 -27 -2 2 7 24 21 49 13 25 22 37
19 28 -7 -22 7 -23 24 -3 9 11 16 13 24 5 42 -42 30 49 -15 113 -36 51 -44 55
-77 31 -28 -19 -29 -7 -1 22 l20 22 -32 11 c-44 15 -49 14 -49 -11 l0 -22 -16
22 c-17 24 -33 26 -81 9z m67 -22 c0 -8 -4 -15 -10 -15 -5 0 -7 7 -4 15 4 8 8
15 10 15 2 0 4 -7 4 -15z"/>
<path d="M1834 3166 c-50 -23 -73 -49 -54 -61 6 -4 14 -3 20 0 5 3 7 0 4 -9
-8 -21 21 -71 90 -152 33 -40 83 -100 109 -133 27 -34 55 -61 63 -61 8 0 25
10 37 23 13 12 35 27 50 34 29 14 28 34 -5 66 -10 10 -18 21 -18 25 0 4 -13
21 -28 39 -15 17 -58 72 -97 121 -38 50 -76 89 -82 87 -8 -3 -12 4 -10 17 3
30 -19 31 -79 4z"/>
<path d="M8708 2834 c-7 -9 -30 -35 -52 -56 -36 -37 -42 -39 -85 -36 -25 3
-53 8 -62 12 -13 6 -24 -6 -50 -49 -19 -31 -44 -73 -56 -93 -13 -20 -23 -42
-23 -49 0 -23 86 -46 147 -40 32 3 59 11 61 17 2 5 12 10 22 10 10 0 20 6 22
12 3 7 12 13 21 13 27 0 137 115 137 142 0 20 4 23 20 18 15 -5 20 -2 20 13 0
16 -23 39 -97 94 -7 6 -16 3 -25 -8z"/>
<path d="M2715 2717 c-10 -18 -47 -66 -83 -107 -91 -107 -115 -137 -172 -210
-27 -36 -55 -71 -61 -78 -6 -7 -8 -20 -5 -28 6 -16 -2 -44 -14 -44 -5 0 -6 10
-3 23 3 17 -5 12 -37 -23 -23 -25 -49 -56 -58 -70 -9 -14 -27 -33 -39 -43 -13
-10 -23 -24 -23 -32 0 -15 55 -64 134 -120 72 -51 76 -52 76 -21 0 19 5 26 19
26 23 0 82 81 64 87 -23 8 -14 20 11 16 20 -4 25 0 28 18 2 13 9 23 15 22 6
-1 18 13 27 32 13 26 14 40 6 55 -9 16 -8 20 5 20 8 0 14 -5 13 -11 -5 -20 20
-21 39 -1 94 102 294 355 286 362 -14 12 -187 146 -199 152 -6 4 -19 -7 -29
-25z m100 -148 c-11 -17 -35 -9 -35 11 0 18 3 19 20 10 11 -6 18 -15 15 -21z
m-325 -318 c22 -9 19 -10 -22 -10 -46 -1 -47 0 -30 17 9 10 19 15 22 11 3 -5
17 -12 30 -18z m85 -11 c3 -5 1 -10 -4 -10 -6 0 -11 5 -11 10 0 6 2 10 4 10 3
0 8 -4 11 -10z"/>
<path d="M7580 2573 c-14 -3 -29 -9 -34 -14 -6 -5 -18 -9 -28 -9 -19 0 -119
-48 -151 -72 -18 -13 -17 -15 2 -40 12 -14 21 -30 21 -35 0 -5 10 -19 23 -31
21 -20 24 -21 46 -6 30 21 112 22 143 2 28 -18 78 -13 78 8 0 8 4 14 8 14 4 0
21 11 37 24 17 14 43 36 60 50 l30 24 -20 22 c-42 46 -145 76 -215 63z"/>
<path d="M7272 2418 c-57 -40 -140 -123 -176 -175 -39 -58 -48 -162 -17 -209
68 -108 195 -122 374 -41 37 16 67 34 67 38 0 5 13 9 28 9 31 0 53 16 46 35
-3 7 12 18 36 28 32 12 39 13 30 2 -15 -18 88 21 113 42 14 14 17 14 17 2 0
-8 -6 -21 -12 -27 -10 -10 -7 -12 12 -10 17 2 24 -1 22 -11 -2 -7 5 -22 14
-32 14 -15 14 -21 4 -34 -8 -9 -9 -15 -2 -15 6 0 0 -12 -13 -26 -20 -21 -22
-30 -14 -41 9 -11 8 -12 -5 -7 -12 5 -15 2 -10 -12 4 -13 3 -15 -3 -6 -7 10
-16 9 -41 -4 -18 -8 -32 -19 -32 -23 0 -16 42 -61 57 -61 13 0 13 -3 3 -15
-10 -12 -10 -19 -2 -27 23 -23 166 99 234 201 13 19 14 27 5 33 -23 15 -65 8
-101 -17 -21 -14 -35 -21 -32 -16 4 5 0 12 -6 14 -7 3 -3 6 9 6 13 1 28 10 35
21 7 11 24 20 38 20 24 1 24 1 6 15 -11 8 -15 15 -8 15 6 0 23 -12 37 -26 22
-22 28 -24 42 -13 12 11 14 27 10 74 -2 34 -10 71 -16 83 -10 18 -15 20 -38
11 -26 -10 -27 -10 -9 9 16 19 16 21 -10 41 -32 25 -42 26 -66 4 -10 -9 -18
-11 -18 -5 0 6 5 12 12 14 6 2 8 10 4 16 -4 7 -32 12 -71 12 -74 0 -155 -27
-328 -109 -118 -56 -172 -65 -200 -33 -10 10 -17 28 -17 39 0 23 57 93 75 93
7 0 20 9 30 19 16 19 16 22 -14 66 -17 25 -31 50 -31 56 0 16 -24 8 -68 -23z
m528 -184 c0 -14 -3 -14 -15 -4 -8 7 -15 14 -15 16 0 2 7 4 15 4 8 0 15 -7 15
-16z m130 2 c0 -3 -4 -8 -10 -11 -5 -3 -10 -1 -10 4 0 6 5 11 10 11 6 0 10 -2
10 -4z m-60 -71 c-7 -9 -15 -13 -17 -11 -7 7 7 26 19 26 6 0 6 -6 -2 -15z
m-85 -305 c3 -6 -1 -7 -9 -4 -18 7 -21 14 -7 14 6 0 13 -4 16 -10z"/>
<path d="M3237 2303 c-13 -12 -8 -26 6 -16 15 12 55 -7 49 -25 -2 -6 1 -12 6
-12 5 0 13 -8 17 -17 5 -15 4 -16 -6 -5 -20 19 -42 15 -35 -5 7 -17 6 -17 -10
-1 -14 14 -15 20 -4 32 21 26 -15 20 -40 -6 -11 -12 -20 -18 -21 -12 0 5 -5
-2 -10 -16 -8 -21 -6 -28 12 -42 11 -10 29 -18 38 -18 9 0 21 -4 27 -10 5 -5
40 -20 78 -34 38 -13 71 -27 75 -32 3 -5 24 -15 46 -23 22 -7 76 -31 120 -52
45 -22 84 -39 88 -39 4 0 7 9 7 21 0 14 5 19 18 17 10 -2 17 -13 17 -25 0 -13
5 -27 10 -32 18 -16 240 -107 255 -104 18 4 53 79 45 94 -4 5 -1 9 4 9 15 0
14 33 -1 48 -15 15 -38 16 -38 2 0 -5 7 -10 16 -10 13 0 13 -2 2 -13 -15 -15
-70 -17 -64 -2 2 6 11 9 20 9 26 -3 18 25 -11 38 -16 7 -39 20 -52 30 -13 10
-30 18 -37 18 -14 0 -35 9 -164 68 -91 41 -302 133 -353 153 -48 19 -98 25
-110 12z m228 -203 c-3 -5 -12 -10 -18 -10 -7 0 -6 4 3 10 19 12 23 12 15 0z
m275 -10 c0 -5 -5 -10 -11 -10 -5 0 -7 5 -4 10 3 6 8 10 11 10 2 0 4 -4 4 -10z
m-42 -28 c5 -31 -15 -27 -21 3 -3 16 0 24 7 22 6 -2 12 -13 14 -25z m206 -69
c13 -21 22 -40 20 -42 -2 -2 -22 15 -44 38 -33 34 -37 41 -20 41 12 0 29 -15
44 -37z"/>
<path d="M6590 2060 c-8 -5 -46 -16 -85 -26 -38 -9 -80 -23 -92 -30 -12 -8
-33 -14 -45 -14 -13 0 -50 -10 -83 -21 -33 -11 -74 -22 -92 -25 -63 -8 -82
-21 -78 -51 7 -53 34 -105 53 -99 9 3 35 8 57 12 22 3 110 26 195 49 85 24
171 46 190 49 63 11 65 15 45 95 -18 72 -29 84 -65 61z"/>
<path d="M3436 2015 c3 -8 -15 -56 -41 -107 -25 -50 -44 -100 -42 -110 3 -10
1 -16 -3 -13 -10 6 -40 -36 -64 -90 -10 -22 -38 -79 -62 -127 -24 -47 -44 -90
-44 -95 0 -9 20 -19 130 -64 30 -12 59 -26 65 -31 13 -12 65 -10 65 3 0 6 15
44 34 84 23 50 30 75 23 79 -7 2 -5 5 4 5 9 1 21 12 27 26 16 34 15 35 -7 35
-21 0 -37 17 -27 27 3 3 11 1 18 -5 10 -8 20 -3 40 17 31 31 72 116 63 131 -3
6 -2 10 3 10 6 0 19 19 31 42 16 33 18 45 8 57 -10 12 -9 14 6 8 13 -5 17 -1
17 17 0 17 -9 27 -32 36 -18 8 -64 28 -103 47 -76 36 -118 43 -109 18z m-36
-209 c0 -11 -19 -15 -25 -6 -3 5 1 10 9 10 9 0 16 -2 16 -4z m31 -68 c11 -21
11 -22 -4 -9 -10 7 -17 17 -17 22 0 15 9 10 21 -13z"/>
<path d="M5990 1891 c-19 -3 -50 -14 -69 -24 -21 -12 -37 -15 -43 -9 -6 6 -22
6 -45 -1 -32 -10 -34 -13 -29 -41 9 -42 21 -52 42 -35 15 12 16 12 9 -10 -5
-16 -3 -26 6 -32 11 -7 11 -9 -2 -9 -28 0 -33 -33 -9 -52 29 -23 34 -23 50 7
8 15 22 25 34 24 21 0 21 0 -1 -9 -19 -8 -36 -37 -38 -65 0 -5 -11 -15 -25
-22 l-25 -13 23 -6 c23 -7 30 -30 11 -36 -9 -3 -7 -20 6 -58 10 -30 20 -64 21
-75 8 -54 81 -324 87 -319 4 4 16 -1 27 -11 11 -10 20 -13 20 -7 0 5 9 8 20 5
14 -4 20 0 20 11 0 10 -9 16 -25 16 -14 0 -25 5 -25 10 0 6 7 10 15 10 18 0
20 16 3 23 -9 3 -2 14 17 30 34 28 42 28 26 -2 -10 -18 -9 -19 25 -14 33 5 36
4 32 -18 -2 -15 -12 -26 -28 -30 -24 -7 -24 -7 -2 -8 12 -1 31 5 42 12 17 10
22 9 31 -3 8 -13 12 -12 28 8 13 15 21 18 24 10 3 -9 7 -8 12 4 4 10 -2 45
-14 80 -11 35 -25 86 -31 113 -6 28 -18 80 -28 117 l-18 67 -22 -21 c-17 -18
-23 -19 -36 -8 -19 15 -21 31 -3 24 7 -2 23 7 36 20 21 22 22 29 12 54 -13 32
-37 121 -52 197 -21 105 -27 110 -109 96z m-72 -78 c5 -18 -50 -17 -74 2 -18
14 -16 15 25 13 25 -2 46 -9 49 -15z m81 -159 c3 -3 -2 -11 -11 -18 -15 -11
-15 -13 0 -23 15 -11 15 -12 -3 -12 -18 -1 -20 -7 -19 -53 1 -44 0 -45 -3 -10
-4 38 -6 41 -24 32 -17 -10 -19 -7 -19 20 0 16 5 30 11 30 7 0 9 11 6 26 -4
24 -3 26 26 20 17 -3 33 -9 36 -12z m41 -94 c6 -11 7 -20 2 -20 -10 0 -32 21
-32 32 0 16 19 8 30 -12z m24 -76 c17 -6 22 -24 8 -24 -5 0 -17 7 -28 15 -19
15 -8 20 20 9z m-34 -35 c0 -6 -9 -9 -20 -6 -13 3 -25 -2 -35 -16 -12 -17 -15
-18 -15 -5 0 19 26 37 53 38 9 0 17 -5 17 -11z m-90 -9 c0 -5 -4 -10 -10 -10
-5 0 -10 5 -10 10 0 6 5 10 10 10 6 0 10 -4 10 -10z m260 -204 c0 -3 -4 -8
-10 -11 -5 -3 -10 -1 -10 4 0 6 5 11 10 11 6 0 10 -2 10 -4z"/>
<path d="M4472 1851 c12 -16 48 -64 78 -107 66 -93 79 -106 128 -121 l37 -11
-50 -2 c-27 -1 -43 -4 -35 -7 8 -4 20 -13 26 -21 10 -14 48 -17 194 -13 l65 2
-25 21 c-14 11 -24 25 -22 30 1 5 -10 25 -25 43 -15 18 -52 67 -82 109 -32 46
-62 78 -75 80 -49 10 -183 26 -209 26 l-29 0 24 -29z m332 -236 c3 -10 -1 -15
-13 -15 -29 0 -52 11 -45 21 9 15 51 10 58 -6z"/>
<path d="M7390 1855 c-13 -14 -27 -25 -32 -25 -5 0 -30 -16 -55 -35 -25 -19
-52 -35 -59 -35 -45 0 -10 -53 64 -97 38 -23 50 -25 130 -21 77 3 96 8 164 42
43 21 75 42 72 47 -3 5 3 9 13 9 10 0 29 7 42 16 21 15 21 18 7 26 -9 5 -26
29 -39 53 l-22 45 -30 -16 c-32 -17 -50 -22 -106 -31 -37 -5 -99 18 -99 37 0
18 -26 10 -50 -15z"/>
<path d="M4440 1825 c0 -19 -5 -68 -11 -110 -14 -93 -6 -108 54 -98 29 4 38 3
33 -5 -4 -7 -22 -12 -41 -12 -43 0 -65 -9 -65 -26 0 -8 10 -14 25 -14 14 0 25
-5 25 -10 0 -6 -10 -8 -24 -4 -22 5 -24 2 -35 -58 -6 -35 -18 -128 -26 -208
-8 -80 -17 -153 -20 -162 -8 -21 8 -25 120 -33 50 -3 102 -8 118 -11 15 -3 28
-2 28 3 1 4 3 19 4 33 2 23 8 75 35 303 11 91 5 110 -43 131 -27 12 -29 14 -9
15 44 2 19 34 -35 46 -40 8 -42 20 -7 29 14 4 24 10 22 14 -9 19 -139 212
-143 212 -3 0 -5 -16 -5 -35z m99 -279 c10 -12 8 -13 -8 -9 -12 3 -21 9 -21
14 0 14 16 11 29 -5z"/>
<path d="M5134 1795 c-4 -8 -4 -21 -1 -28 3 -7 2 -43 -2 -80 -6 -57 -5 -67 8
-67 12 0 13 -3 4 -8 -7 -5 -17 -56 -24 -124 l-11 -116 81 -105 c45 -58 81
-111 81 -119 1 -7 19 -33 40 -57 37 -40 40 -42 41 -20 0 13 2 44 4 69 3 25 7
86 9 135 14 258 26 453 31 477 9 56 4 58 -131 58 -102 0 -126 -3 -130 -15z"/>
<path d="M5820 1744 c0 -8 5 -12 10 -9 6 3 10 10 10 16 0 5 -4 9 -10 9 -5 0
-10 -7 -10 -16z"/>
<path d="M6625 1750 c-22 -3 -55 -14 -74 -23 -19 -9 -50 -17 -70 -18 -49 -1
-227 -62 -223 -77 2 -14 -15 -16 -20 -2 -1 5 -13 7 -25 4 l-22 -6 22 -19 c20
-17 20 -18 3 -19 -11 0 -16 -5 -13 -14 3 -8 9 -31 13 -51 5 -26 11 -35 21 -31
8 3 17 6 19 6 3 0 2 4 -1 10 -4 6 5 7 23 4 17 -4 72 6 138 24 60 16 131 35
159 42 27 6 52 15 55 18 3 4 25 14 50 23 41 15 45 19 41 45 -4 36 -26 80 -43
86 -7 2 -31 1 -53 -2z m-305 -144 c0 -3 -4 -8 -10 -11 -5 -3 -10 -1 -10 4 0 6
5 11 10 11 6 0 10 -2 10 -4z"/>
<path d="M5850 1650 c0 -6 7 -10 15 -10 8 0 15 2 15 4 0 2 -7 6 -15 10 -8 3
-15 1 -15 -4z"/>
<path d="M4706 1535 c-3 -10 29 -54 278 -379 52 -69 97 -118 110 -121 42 -9
246 -14 246 -6 0 4 -41 57 -91 117 -49 60 -109 134 -131 164 -23 30 -56 71
-74 90 -17 19 -48 60 -68 90 l-36 55 -115 0 c-69 0 -116 -4 -119 -10z"/>
<path d="M6780 1440 c-23 -13 -54 -23 -64 -21 -5 1 -30 -5 -55 -13 -25 -8 -75
-22 -111 -31 -36 -9 -90 -25 -120 -35 -30 -11 -64 -20 -74 -22 -11 -2 -19 -7
-18 -13 0 -5 -6 -14 -14 -18 -8 -4 -14 -19 -14 -32 0 -13 -5 -25 -11 -27 -13
-4 9 -57 25 -59 55 -6 91 15 64 35 -10 7 -18 18 -18 25 0 6 14 -2 30 -19 26
-27 33 -30 46 -19 9 7 33 14 54 15 53 3 85 21 69 40 -6 8 -8 14 -4 14 4 0 13
-7 19 -15 10 -12 22 -11 96 8 47 12 87 25 90 28 3 4 24 12 48 18 52 14 60 32
38 77 -9 19 -16 44 -16 54 0 21 -32 27 -60 10z m-140 -145 c0 -8 -2 -15 -4
-15 -2 0 -6 7 -10 15 -3 8 -1 15 4 15 6 0 10 -7 10 -15z"/>
<path d="M6280 1269 c0 -5 5 -7 10 -4 6 3 10 8 10 11 0 2 -4 4 -10 4 -5 0 -10
-5 -10 -11z"/>
</g>
</svg>
